<?xml version="1.0" encoding="UTF-8"?>
<svg id="Shapes" xmlns="http://www.w3.org/2000/svg" xmlns:svg="http://www.w3.org/2000/svg" width="2988" height="2107.2" viewBox="0 0 2988 2107.2" version="1.1">
  <style>text.aurora-proof-label { line-height:1.2; font-size:32px; text-anchor:middle; dominant-baseline:middle; }
text.aurora-proof-label tspan { dominant-baseline:middle; }

g.aurora-symbol { fill:none; stroke:#000; }

g.aurora-symbol &gt; circle,
g.aurora-symbol &gt; ellipse,
g.aurora-symbol &gt; line,
g.aurora-symbol &gt; mpath,
g.aurora-symbol &gt; path,
g.aurora-symbol &gt; polygon,
g.aurora-symbol &gt; polyline,
g.aurora-symbol &gt; rect {
	fill:inherit;
	font-family: 'Noto Sans', Arial, Helvetica, sans-serif;
	font-size:16;
	line-height:1.2;
	stroke-linecap:round;
	stroke-linejoin:round;
	stroke-width:4;
	stroke:inherit;
}
text {
	text-anchor:middle;
}
.aurora-icon {}
.aurora-symbol {}</style>
  <defs>
    <g id="box" class="aurora-symbol">
      <path d="M 1,41 41,1 h 678 v 408 l -40,40" />
      <path d="M 677,45 717,7" style="stroke:#ffffff;" />
      <path d="M 679,41 719,1" />
      <rect y="43" x="1" style="stroke:#ffffff;" height="406" width="676" />
      <rect x="1" width="678" height="408" y="41" style="fill-opacity:0;" />
    </g>
    <g id="component" class="aurora-symbol">
      <path d="M 61,40 V 1 H 719 V 449 H 61 v -49" />
      <path style="fill-opacity:0;" d="M 61,360 V 80" />
      <rect height="40" width="119" x="1" y="40" />
      <rect width="119" x="1" y="360" height="40" />
      <path d="m 62,38 h 60 V 82 H 62" style="stroke:#ffffff;" />
      <path d="m 62,358 h 60 v 44 H 62" style="stroke:#ffffff;" />
    </g>
    <g class="aurora-symbol" id="curly-braces">
      <path d="m 40,1 C 40,1 1,1 1,40 V 205 C 1,205 1,224 40,224 40,225 1,225 1,245 V 409 C 1,409 1,449 40,449" />
      <path d="m 680,1 C 719,1 719,1 719,40 V 205 C 719,205 719,224 680,224 680,225 719,225 719,245 V 409 C 719,409 719,449 680,449" />
      <path style="stroke-dasharray:25,50;" d="M 40,1 H 718" />
      <path d="M 40,449 H 718" style="stroke-dasharray:25,50;" />
    </g>
    <g class="aurora-symbol" id="cylinder">
      <rect height="410" width="718" x="1" y="20" style="stroke-opacity:0;stroke:none;" />
      <ellipse rx="358" cx="360" style="stroke:#ffffff;" cy="22" ry="19" />
      <ellipse cy="20" cx="360" rx="358" ry="19" />
      <path d="m 1,430 c 0,0 180,19 360,19 180,0 360,-19 360,-19" />
      <path d="M 1,20 V 430" />
      <path d="M 719,20 V 430" />
    </g>
    <g transform="matrix(0.9178273,0,0,0.95108696,59.582172,11.005435)" id="diamond" class="aurora-symbol">
      <path d="m 29.999996,20 -27.9999963,204.99999 27.9999993,205 28,-205 L 29.999996,20" transform="matrix(1.0895296,0,0,1.0514286,-64.916539,-11.571429)" style="fill:#eab308;" />
      <rect y="42.05143" rx="43.581184" width="716.91046" ry="42.057144" height="365.89713" x="1.5447656" />
      <path style="fill-opacity:0;" d="M -32.230651,440.54287 H 327.31412 v 18.92571" />
      <path style="fill-opacity:0;" d="M -32.230652,9.4571426 H 327.31411 v -18.92571" />
    </g>
    <g class="aurora-symbol" id="document">
      <path d="M 1,434 V 1 h 718 v 434 c 0,0 -180,30 -360,0 0,0 -180,-30 -360,0 z" />
    </g>
    <g class="aurora-symbol" id="double-rectangle">
      <rect y="1" x="1" height="448" width="718" />
      <rect height="408" y="21" x="21" width="678" />
      <rect x="23" style="stroke:#ffffff;" height="404" y="23" width="674" />
    </g>
    <g class="aurora-symbol" id="ellipse">
      <ellipse cy="225" rx="359" ry="224" cx="360" />
    </g>
    <g class="aurora-symbol" id="folder">
      <path d="m 1,449 V 41 l 40,-40 h 180 l 40,40 H 719 V 449 z" />
    </g>
    <g class="aurora-symbol" id="hexagon">
      <path d="m 1,225 80,-224 h 558 l 80,224 -80,224 h -558 z" />
    </g>
    <g id="interface" class="aurora-symbol">
      <rect style="stroke-opacity:0;stroke:none;" y="50" x="81" height="350" ry="37.037037" rx="40" width="638" />
      <path start="0" ry="29.023815" style="fill-opacity:0;" cy="230" arc-type="arc" type="arc" d="M 68.040627,230 A 28.540611,29.023815 0 0 1 39.649518,259.02342 28.540611,29.023815 0 0 1 10.96097,230.30406 28.540611,29.023815 0 0 1 39.051523,200.97977 28.540611,29.023815 0 0 1 68.034362,229.39191" rx="28.540611" end="6.2622322" open="true" cx="39.500015" />
      <path d="m 11,199 c 0,-10 9,-28 29,-28 20,0 29,18 29,28" style="fill-opacity:0;" />
      <path d="M 40,170 V 21 H 360 V 1" style="fill-opacity:0;" />
      <path d="m 39,260 1,169 h 319 v 20" style="fill-opacity:0;" />
      <path d="m 370,50 h 309 c 21,0 40,18.02168 40,37.940379 V 362.05962 C 719,381.02981 700,400 680,400 H 370" style="fill-opacity:0;" />
    </g>
    <g id="octagon" class="aurora-symbol">
      <path d="M 3.1250001,125 125,3.1249999 593.75001,1.9999911 l 121.875,121.8749989 0,204.25 -121.875,118.75 H 125 L 3.1250001,328.12499 Z" />
    </g>
    <g id="rectangle" class="aurora-symbol">
      <rect width="718" height="448" y="1" x="1" />
    </g>
    <g class="aurora-symbol" id="rounded-rectangle">
      <rect rx="125" height="448" width="718" x="1" ry="125" y="1" />
    </g>
    <g id="ruler" class="aurora-symbol">
      <rect y="1" x="1" height="448" width="718" />
      <path d="M 1,40 H 719" />
      <path d="m 45,1 v 15 m 45,5 V 1 m 45,0 v 15 m 45,10 V 1 m 45,0 v 15 m 45,5 V 1 m 45,0 v 15 m 45,10 V 1 m 45,0 v 15 m 45,5 V 1 m 45,0 v 15 m 45,10 V 1 m 45,0 v 15 m 45,5 V 1 m 45,0 v 15" />
      <path style="stroke:#ffffff;" d="M 2,42 H 718" />
      <path style="stroke:#ffffff;" d="m 47,3 v 15 m 45,5 V 3 m 45,0 v 15 m 45,10 V 3 m 45,0 v 15 m 45,5 V 3 m 45,0 v 15 m 45,10 V 3 m 45,0 v 15 m 45,5 V 3 m 45,0 v 15 m 45,10 V 3 m 45,0 v 15 m 45,5 V 3 m 45,0 v 15" />
    </g>
    <g id="trapezoid" class="aurora-symbol">
      <path d="m 1,449 L 40,1 H 680 L 719,449 z" />
    </g>
  </defs>
  <rect x="0" width="2988" y="0" fill="#FFFFFF" height="2107.2" />
  <use x="0" href="#box" height="450" width="720" y="0" />
  <text x="360" y="488.4" class="aurora-proof-label">
    <tspan x="360" y="488.4">box</tspan>
  </text>
  <use x="756" y="0" href="#component" width="720" height="450" />
  <text x="1116" y="488.4" class="aurora-proof-label">
    <tspan y="488.4" x="1116">component</tspan>
  </text>
  <use width="720" href="#curly-braces" y="0" height="450" x="1512" />
  <text x="1872" class="aurora-proof-label" y="488.4">
    <tspan y="488.4" x="1872">curly-braces</tspan>
  </text>
  <use href="#cylinder" width="720" y="0" height="450" x="2268" />
  <text class="aurora-proof-label" y="488.4" x="2628">
    <tspan y="488.4" x="2628">cylinder</tspan>
  </text>
  <use y="526.8" href="#diamond" width="720" x="0" height="450" />
  <text class="aurora-proof-label" x="360" y="1015.2">
    <tspan y="1015.2" x="360">diamond</tspan>
  </text>
  <use href="#document" x="756" y="526.8" height="450" width="720" />
  <text class="aurora-proof-label" x="1116" y="1015.2">
    <tspan x="1116" y="1015.2">document</tspan>
  </text>
  <use x="1512" width="720" href="#double-rectangle" y="526.8" height="450" />
  <text x="1872" y="1015.2" class="aurora-proof-label">
    <tspan x="1872" y="1015.2">double-rectangle</tspan>
  </text>
  <use y="526.8" href="#ellipse" x="2268" width="720" height="450" />
  <text class="aurora-proof-label" x="2628" y="1015.2">
    <tspan x="2628" y="1015.2">ellipse</tspan>
  </text>
  <use width="720" height="450" x="0" href="#folder" y="1053.6" />
  <text x="360" class="aurora-proof-label" y="1542">
    <tspan y="1542" x="360">folder</tspan>
  </text>
  <use height="450" x="756" y="1053.6" href="#hexagon" width="720" />
  <text class="aurora-proof-label" y="1542" x="1116">
    <tspan x="1116" y="1542">hexagon</tspan>
  </text>
  <use href="#interface" x="1512" width="720" height="450" y="1053.6" />
  <text class="aurora-proof-label" x="1872" y="1542">
    <tspan y="1542" x="1872">interface</tspan>
  </text>
  <use x="2268" href="#octagon" width="720" height="450" y="1053.6" />
  <text x="2628" y="1542" class="aurora-proof-label">
    <tspan x="2628" y="1542">octagon</tspan>
  </text>
  <use href="#rectangle" width="720" height="450" x="0" y="1580.4" />
  <text y="2068.8" x="360" class="aurora-proof-label">
    <tspan x="360" y="2068.8">rectangle</tspan>
  </text>
  <use y="1580.4" href="#rounded-rectangle" x="756" width="720" height="450" />
  <text y="2068.8" class="aurora-proof-label" x="1116">
    <tspan x="1116" y="2068.8">rounded-rectangle</tspan>
  </text>
  <use y="1580.4" href="#ruler" width="720" height="450" x="1512" />
  <text x="1872" y="2068.8" class="aurora-proof-label">
    <tspan y="2068.8" x="1872">ruler</tspan>
  </text>
  <use y="1580.4" href="#trapezoid" width="720" height="450" x="2268" />
  <text x="2628" y="2068.8" class="aurora-proof-label">
    <tspan y="2068.8" x="2628">trapezoid</tspan>
  </text>
</svg>