<svg xmlns="http://www.w3.org/2000/svg" width="231.39" height="140.00" viewBox="0 0 231.39 140.00">
<defs>
	<symbol id="box" overflow="visible" viewBox="0,0,160,100">
		<rect x="1" y="1" width="158" height="98" fill="#00000000" stroke="#FFFFFF" stroke-width="2" />
	</symbol>
	<symbol id="double-box" overflow="visible" viewBox="0,0,160,100">
		<rect x="1" y="1" width="158" height="98" fill="#00000000" stroke="#FFFFFF" stroke-width="2" />
		<rect x="11" y="11" width="138" height="78" fill="#00000000" stroke="#FFFFFF" stroke-width="2" />
	</symbol>
	<symbol id="card" overflow="visible"  viewBox="0,0,160,100">
		<path d="M1 99L159 99L159 35L125 1L1 1L1 99Z" fill="#00000000" stroke="#FFFFFF" stroke-width="2" />
		<path d="M125 1V35H159" fill="#00000000" stroke="#FFFFFF" stroke-width="2" />
	</symbol>
	<symbol id="class" overflow="visible" viewBox="0,0,160,100">
		<rect x="1" y="1" width="158" height="98" fill="#00000000" stroke="#FFFFFF" stroke-width="2" />
		<line x1="1" y1="25" x2="159" y2="25" stroke="#FFFFFF" stroke-width="2" />
	</symbol>
	<symbol id="component" overflow="visible" viewBox="0,0,160,100">
		<rect x="11" y="1" width="158" height="98" fill="#00000000" stroke="#FFFFFF" stroke-width="2" />
		<rect x="1" y="20" width="30" height="20" fill="#00000000" stroke="#FFFFFF" stroke-width="2" />
		<rect x="1" y="60" width="30" height="20" fill="#00000000" stroke="#FFFFFF" stroke-width="2" />
	</symbol>
	<symbol id="deployment" overflow="visible" viewBox="0,0,160,100">
		<rect x="1" y="1" width="158" height="98" fill="#00000000" stroke="#FFFFFF" stroke-width="2" />
		<rect x="11" y="11" width="10" height="20" fill="#00000000" stroke="#FFFFFF" stroke-width="2" />
		<rect x="11" y="41" width="10" height="20" fill="#00000000" stroke="#FFFFFF" stroke-width="2" />
		<rect x="11" y="71" width="10" height="20" fill="#00000000" stroke="#FFFFFF" stroke-width="2" />
		<rect x="141" y="11" width="10" height="20" fill="#00000000" stroke="#FFFFFF" stroke-width="2" />
		<rect x="141" y="41" width="10" height="20" fill="#00000000" stroke="#FFFFFF" stroke-width="2" />
		<rect x="141" y="71" width="10" height="20" fill="#00000000" stroke="#FFFFFF" stroke-width="2" />
	</symbol>
	<symbol id="diamond" overflow="visible"  viewBox="0,0,160,100">
		<path d="M1 49L80 99L159 49L80 1L1 49Z" fill="#00000000" stroke="#FFFFFF" stroke-width="2" />
	</symbol>
	<symbol id="cylinder" overflow="visible"  viewBox="0,0,160,100">
		<ellipse cx="80" cy="20" rx="79" ry="9" fill="#00000000" stroke="#FFFFFF" stroke-width="2" />
		<path d="M1 21V90" fill="#00000000" stroke="#FFFFFF" stroke-width="2" />
		<path d="M159 21V90" fill="#00000000" stroke="#FFFFFF" stroke-width="2" />
		<path d="M1 90A80 10 0 0 0 159 90" fill="#00000000" stroke="#FFFFFF" stroke-width="2" />
	</symbol>
	<symbol id="document" overflow="visible" viewBox="0,0,160,100">
		<path d="M1 90V1H159V90" fill="#00000000" stroke="#FFFFFF" stroke-width="2" />
		<path d="M1 90A40 10 0 0 0 80 90" fill="#00000000" stroke="#FFFFFF" stroke-width="2" />
		<path d="M159 90A40 10 0 0 0 80 90" fill="#00000000" stroke="#FFFFFF" stroke-width="2" />
	</symbol>
	<symbol id="folder" overflow="visible" viewBox="0,0,160,100">
		<path d="M1 99V15L10 1H50L60 15H159V99Z" fill="#00000000" stroke="#FFFFFF" stroke-width="2" />
	</symbol>
	<symbol id="octagon" overflow="visible" viewBox="0,0,160,100">
		<path d="M1 31V70L31 99H129L159 70V30L129 1H31Z" fill="#00000000" stroke="#FFFFFF" stroke-width="2" />
	</symbol>
	<symbol id="oval" overflow="visible" viewBox="0,0,160,100">
		<ellipse rx="79" ry="49" cx="80" cy="50" fill="#00000000" stroke="#FFFFFF" stroke-width="2" />
	</symbol>
	<symbol id="rounded-rectangle" overflow="visible" viewBox="0,0,160,100">
		<rect x="1" y="1" width="158" height="98"
		rx="30" ry="30" fill="#00000000" stroke="#FFFFFF" stroke-width="2" />
	</symbol>
	<symbol id="ruler" overflow="visible" viewBox="0,0,160,100">
		<rect x="1" y="1" width="158" height="98" fill="#00000000" stroke="#FFFFFF" stroke-width="2" />
		<path d="M10 1V5M20 1V10M30 1V5M40 1V15M50 1V5M60 1V10M70 1V5M80 1V15M90 1V5M100 1V10M110 1V5M120 1V15M130 1V5M140 1V10M150 1V5" stroke="#FFFFFF" stroke-width="2" />
		<path d="M1 20H159" stroke="#FFFFFF" stroke-width="2" />
	</symbol>
	<symbol id="interface" overflow="visible" viewBox="0,0,160,100">
		<path d="M41 99V1H31V99H119A50 50 0 0 0 119 1H41" stroke="#FFFFFF" stroke-width="2" />
		<rect x="1" y="20" width="30" height="10" fill="#00000000" stroke="#FFFFFF" stroke-width="2" />
		<rect x="1" y="70" width="30" height="10" fill="#00000000" stroke="#FFFFFF" stroke-width="2" />
	</symbol>
	<symbol id="trapezoid" overflow="visible" viewBox="0,0,160,100">
	    <path d="M 0,100 20,0 h 120 l 20,100 z" fill="#00000000" stroke="#FFFFFF" stroke-width="2" />
	</symbol>
</defs>

<rect x="16.00" y="24.00" width="100.00" height="100.00" fill="none" stroke="#FFF000000FFF" stroke-width="2.00" stroke-dasharray="5 5" /><text x="22.00" y="40.00" text-anchor="start" font-family="&quot;Noto Sans&quot;, Roboto, Verdana, system-ui, sans-serif" font-size="16.00" fill="#111827" dominant-baseline="middle">\N</text><rect x="16.00" y="24.00" width="100.00" height="100.00" fill="none" stroke="#FFF000000FFF" stroke-width="2.00" stroke-dasharray="5 5" /><text x="22.00" y="40.00" text-anchor="start" font-family="&quot;Noto Sans&quot;, Roboto, Verdana, system-ui, sans-serif" font-size="16.00" fill="#111827" dominant-baseline="middle">satisfies</text><rect x="16.00" y="24.00" width="100.00" height="100.00" fill="none" stroke="#FFF000000FFF" stroke-width="2.00" stroke-dasharray="5 5" /><text x="22.00" y="40.00" text-anchor="start" font-family="&quot;Noto Sans&quot;, Roboto, Verdana, system-ui, sans-serif" font-size="16.00" fill="#111827" dominant-baseline="middle">\N</text><rect x="16.00" y="24.00" width="100.00" height="100.00" fill="none" stroke="#FFF000000FFF" stroke-width="2.00" stroke-dasharray="5 5" /><text x="22.00" y="40.00" text-anchor="start" font-family="&quot;Noto Sans&quot;, Roboto, Verdana, system-ui, sans-serif" font-size="16.00" fill="#111827" dominant-baseline="middle">\N</text><path d="M 128.24 51.24 C 122.55 59.39 116.39 69.47 111.39 78.69 L 106.68 87.88" fill="none" stroke="#000000" stroke-width="2.00" /><path d="M 139.50 51.94 C 135.28 60.74 129.08 71.64 122.88 81.26 L 117.24 89.64" fill="none" stroke="#000000" stroke-width="2.00" /><path d="M 147.52 52.30 C 151.60 61.02 157.54 71.72 163.51 81.19 L 169.18 89.80" fill="none" stroke="#000000" stroke-width="2.00" /><path d="M 158.63 51.24 C 164.20 59.39 170.21 69.47 175.08 78.69 L 179.66 87.88" fill="none" stroke="#000000" stroke-width="2.00" /></svg>