<svg xmlns="http://www.w3.org/2000/svg" width="1992.53" height="609.24" viewBox="0 0 1992.53 609.24">
<defs>
	<symbol id="box" overflow="visible" viewBox="0,0,160,100">
		<rect x="1" y="1" width="158" height="98" fill="#00000000" stroke="#FFFFFF" stroke-width="2" />
	</symbol>
	<symbol id="double-box" overflow="visible" viewBox="0,0,160,100">
		<rect x="1" y="1" width="158" height="98" fill="#00000000" stroke="#FFFFFF" stroke-width="2" />
		<rect x="11" y="11" width="138" height="78" fill="#00000000" stroke="#FFFFFF" stroke-width="2" />
	</symbol>
	<symbol id="card" overflow="visible"  viewBox="0,0,160,100">
		<path d="M1 99L159 99L159 35L125 1L1 1L1 99Z" fill="#00000000" stroke="#FFFFFF" stroke-width="2" />
		<path d="M125 1V35H159" fill="#00000000" stroke="#FFFFFF" stroke-width="2" />
	</symbol>
	<symbol id="class" overflow="visible" viewBox="0,0,160,100">
		<rect x="1" y="1" width="158" height="98" fill="#00000000" stroke="#FFFFFF" stroke-width="2" />
		<line x1="1" y1="25" x2="159" y2="25" stroke="#FFFFFF" stroke-width="2" />
	</symbol>
	<symbol id="component" overflow="visible" viewBox="0,0,160,100">
		<rect x="11" y="1" width="158" height="98" fill="#00000000" stroke="#FFFFFF" stroke-width="2" />
		<rect x="1" y="20" width="30" height="20" fill="#00000000" stroke="#FFFFFF" stroke-width="2" />
		<rect x="1" y="60" width="30" height="20" fill="#00000000" stroke="#FFFFFF" stroke-width="2" />
	</symbol>
	<symbol id="deployment" overflow="visible" viewBox="0,0,160,100">
		<rect x="1" y="1" width="158" height="98" fill="#00000000" stroke="#FFFFFF" stroke-width="2" />
		<rect x="11" y="11" width="10" height="20" fill="#00000000" stroke="#FFFFFF" stroke-width="2" />
		<rect x="11" y="41" width="10" height="20" fill="#00000000" stroke="#FFFFFF" stroke-width="2" />
		<rect x="11" y="71" width="10" height="20" fill="#00000000" stroke="#FFFFFF" stroke-width="2" />
		<rect x="141" y="11" width="10" height="20" fill="#00000000" stroke="#FFFFFF" stroke-width="2" />
		<rect x="141" y="41" width="10" height="20" fill="#00000000" stroke="#FFFFFF" stroke-width="2" />
		<rect x="141" y="71" width="10" height="20" fill="#00000000" stroke="#FFFFFF" stroke-width="2" />
	</symbol>
	<symbol id="diamond" overflow="visible"  viewBox="0,0,160,100">
		<path d="M1 49L80 99L159 49L80 1L1 49Z" fill="#00000000" stroke="#FFFFFF" stroke-width="2" />
	</symbol>
	<symbol id="cylinder" overflow="visible"  viewBox="0,0,160,100">
		<ellipse cx="80" cy="20" rx="79" ry="9" fill="#00000000" stroke="#FFFFFF" stroke-width="2" />
		<path d="M1 21V90" fill="#00000000" stroke="#FFFFFF" stroke-width="2" />
		<path d="M159 21V90" fill="#00000000" stroke="#FFFFFF" stroke-width="2" />
		<path d="M1 90A80 10 0 0 0 159 90" fill="#00000000" stroke="#FFFFFF" stroke-width="2" />
	</symbol>
	<symbol id="document" overflow="visible" viewBox="0,0,160,100">
		<path d="M1 90V1H159V90" fill="#00000000" stroke="#FFFFFF" stroke-width="2" />
		<path d="M1 90A40 10 0 0 0 80 90" fill="#00000000" stroke="#FFFFFF" stroke-width="2" />
		<path d="M159 90A40 10 0 0 0 80 90" fill="#00000000" stroke="#FFFFFF" stroke-width="2" />
	</symbol>
	<symbol id="folder" overflow="visible" viewBox="0,0,160,100">
		<path d="M1 99V15L10 1H50L60 15H159V99Z" fill="#00000000" stroke="#FFFFFF" stroke-width="2" />
	</symbol>
	<symbol id="octagon" overflow="visible" viewBox="0,0,160,100">
		<path d="M1 31V70L31 99H129L159 70V30L129 1H31Z" fill="#00000000" stroke="#FFFFFF" stroke-width="2" />
	</symbol>
	<symbol id="oval" overflow="visible" viewBox="0,0,160,100">
		<ellipse rx="79" ry="49" cx="80" cy="50" fill="#00000000" stroke="#FFFFFF" stroke-width="2" />
	</symbol>
	<symbol id="rounded-rectangle" overflow="visible" viewBox="0,0,160,100">
		<rect x="1" y="1" width="158" height="98"
		rx="30" ry="30" fill="#00000000" stroke="#FFFFFF" stroke-width="2" />
	</symbol>
	<symbol id="ruler" overflow="visible" viewBox="0,0,160,100">
		<rect x="1" y="1" width="158" height="98" fill="#00000000" stroke="#FFFFFF" stroke-width="2" />
		<path d="M10 1V5M20 1V10M30 1V5M40 1V15M50 1V5M60 1V10M70 1V5M80 1V15M90 1V5M100 1V10M110 1V5M120 1V15M130 1V5M140 1V10M150 1V5" stroke="#FFFFFF" stroke-width="2" />
		<path d="M1 20H159" stroke="#FFFFFF" stroke-width="2" />
	</symbol>
	<symbol id="interface" overflow="visible" viewBox="0,0,160,100">
		<path d="M41 99V1H31V99H119A50 50 0 0 0 119 1H41" stroke="#FFFFFF" stroke-width="2" />
		<rect x="1" y="20" width="30" height="10" fill="#00000000" stroke="#FFFFFF" stroke-width="2" />
		<rect x="1" y="70" width="30" height="10" fill="#00000000" stroke="#FFFFFF" stroke-width="2" />
	</symbol>
	<symbol id="trapezoid" overflow="visible" viewBox="0,0,160,100">
	    <path d="M 0,100 20,0 h 120 l 20,100 z" fill="#00000000" stroke="#FFFFFF" stroke-width="2" />
	</symbol>
</defs>

<use href="#rounded-rectangle" x="383.77" y="369.12" width="118.64" height="15.32" fill="#064e3b" stroke="#FFF000000FFF" stroke-width="2.00" />
<text x="447.77" y="376.78" font-size="48">🧭</text><text x="443.09" y="347.98" text-anchor="middle" font-family="Noto Sans" font-size="12.00" fill="#111827" dominant-baseline="middle">&lt;FONT COLOR=&quot;#FFFFFF&quot;&gt;&lt;B&gt;Driver&lt;/B&gt;</text><text x="443.09" y="362.38" text-anchor="middle" font-family="Noto Sans" font-size="12.00" fill="#111827" dominant-baseline="middle">&lt;B&gt;Reference Driver&lt;/B&gt;</text><text x="443.09" y="376.78" text-anchor="middle" font-family="Noto Sans" font-size="12.00" fill="#111827" dominant-baseline="middle">Motivation used to drive a downstream requirement in the relationship-matrix ref</text><text x="443.09" y="391.18" text-anchor="middle" font-family="Noto Sans" font-size="12.00" fill="#111827" dominant-baseline="middle">erence model.</text><text x="443.09" y="405.58" text-anchor="middle" font-family="Noto Sans" font-size="12.00" fill="#111827" dominant-baseline="middle">&lt;/FONT&gt;</text><use href="#octagon" x="1003.17" y="207.81" width="117.85" height="15.32" fill="#022c22" stroke="#FFF000000FFF" stroke-width="2.00" />
<text x="1067.18" y="215.47" font-size="48">🎯</text><text x="1062.10" y="186.67" text-anchor="middle" font-family="Noto Sans" font-size="12.00" fill="#111827" dominant-baseline="middle">&lt;FONT COLOR=&quot;#FFFFFF&quot;&gt;&lt;B&gt;Mission&lt;/B&gt;</text><text x="1062.10" y="201.07" text-anchor="middle" font-family="Noto Sans" font-size="12.00" fill="#111827" dominant-baseline="middle">&lt;B&gt;Relationship Matrix Reference&lt;/B&gt;</text><text x="1062.10" y="215.47" text-anchor="middle" font-family="Noto Sans" font-size="12.00" fill="#111827" dominant-baseline="middle">Reference Aurora model encoding the canonical relationship registry as concrete</text><text x="1062.10" y="229.87" text-anchor="middle" font-family="Noto Sans" font-size="12.00" fill="#111827" dominant-baseline="middle">card links for tooling and diagram validation.</text><text x="1062.10" y="244.27" text-anchor="middle" font-family="Noto Sans" font-size="12.00" fill="#111827" dominant-baseline="middle">&lt;/FONT&gt;</text><use href="#rounded-rectangle" x="385.44" y="530.43" width="115.30" height="15.32" fill="#065f46" stroke="#FFF000000FFF" stroke-width="2.00" />
<text x="449.44" y="538.09" font-size="48">☑️</text><text x="443.09" y="509.29" text-anchor="middle" font-family="Noto Sans" font-size="12.00" fill="#111827" dominant-baseline="middle">&lt;FONT COLOR=&quot;#FFFFFF&quot;&gt;&lt;B&gt;Requirement&lt;/B&gt;</text><text x="443.09" y="523.69" text-anchor="middle" font-family="Noto Sans" font-size="12.00" fill="#111827" dominant-baseline="middle">&lt;B&gt;Reference Requirement&lt;/B&gt;</text><text x="443.09" y="538.09" text-anchor="middle" font-family="Noto Sans" font-size="12.00" fill="#111827" dominant-baseline="middle">Requirement referenced by multiple rules (driven by driver, satisfied by capabil</text><text x="443.09" y="552.49" text-anchor="middle" font-family="Noto Sans" font-size="12.00" fill="#111827" dominant-baseline="middle">ity, documented by ADR, limited by constraint).</text><text x="443.09" y="566.89" text-anchor="middle" font-family="Noto Sans" font-size="12.00" fill="#111827" dominant-baseline="middle">&lt;/FONT&gt;</text><use href="#box" x="932.87" y="374.28" width="14.44" height="5.00" fill="#00000000" stroke="#FFF000000FFF" stroke-width="2.00" /><text x="940.09" y="376.78" text-anchor="middle" font-family="Noto Sans" font-size="12.00" fill="#111827" dominant-baseline="middle">\N</text><use href="#box" x="1054.88" y="374.28" width="14.44" height="5.00" fill="#00000000" stroke="#FFF000000FFF" stroke-width="2.00" /><text x="1062.10" y="376.78" text-anchor="middle" font-family="Noto Sans" font-size="12.00" fill="#111827" dominant-baseline="middle">\N</text><use href="#box" x="1175.97" y="374.28" width="14.26" height="5.00" fill="#00000000" stroke="#FFF000000FFF" stroke-width="2.00" /><text x="1183.10" y="376.78" text-anchor="middle" font-family="Noto Sans" font-size="12.00" fill="#111827" dominant-baseline="middle">\N</text><use href="#box" x="1296.88" y="374.28" width="14.44" height="5.00" fill="#00000000" stroke="#FFF000000FFF" stroke-width="2.00" /><text x="1304.10" y="376.78" text-anchor="middle" font-family="Noto Sans" font-size="12.00" fill="#111827" dominant-baseline="middle">\N</text><path d="M 443.09 432.16 C 443.09 445.16 443.09 459.16 443.09 472.57 L 443.09 482.68" fill="none" stroke="#000000" stroke-width="2.00" /><text x="465.59" y="457.43" text-anchor="middle" font-family="Noto Sans" font-size="12.00" fill="#111827" dominant-baseline="middle">drives</text><path d="M 873.85 264.92 C 800.41 283.82 716.15 305.50 641.73 324.65 L 631.77 327.22" fill="none" stroke="#000000" stroke-width="2.00" /><text x="812.59" y="296.12" text-anchor="middle" font-family="Noto Sans" font-size="12.00" fill="#111827" dominant-baseline="middle">establishes</text><path d="M 1013.56 270.64 C 1008.57 276.62 1003.66 282.69 999.09 288.62 C 983.61 308.71 967.58 332.64 956.13 350.34 L 950.60 358.97" fill="none" stroke="#000000" stroke-width="2.00" /><text x="1028.60" y="296.12" text-anchor="middle" font-family="Noto Sans" font-size="12.00" fill="#111827" dominant-baseline="middle">involves</text><path d="M 1062.10 270.85 C 1062.10 296.95 1062.10 327.08 1062.10 348.34 L 1062.10 358.58" fill="none" stroke="#000000" stroke-width="2.00" /><text x="1091.60" y="296.12" text-anchor="middle" font-family="Noto Sans" font-size="12.00" fill="#111827" dominant-baseline="middle">involves</text><path d="M 1110.70 270.60 C 1115.70 276.59 1120.50 282.68 1125.10 288.62 C 1140.40 308.67 1156.20 332.60 1167.40 350.31 L 1172.80 358.95" fill="none" stroke="#000000" stroke-width="2.00" /><text x="1166.60" y="296.12" text-anchor="middle" font-family="Noto Sans" font-size="12.00" fill="#111827" dominant-baseline="middle">requires</text><path d="M 1168.40 269.00 C 1179.60 275.32 1190.70 281.92 1201.10 288.62 C 1221.00 301.48 1224.90 306.40 1243.10 321.62 C 1255.10 331.63 1268.00 343.06 1278.90 352.84 L 1286.50 359.61" fill="none" stroke="#000000" stroke-width="2.00" /><text x="1251.60" y="296.12" text-anchor="middle" font-family="Noto Sans" font-size="12.00" fill="#111827" dominant-baseline="middle">requires</text></svg>