<svg xmlns="http://www.w3.org/2000/svg" width="3179.60" height="394.16" viewBox="0 0 3179.60 394.16">
<defs>
	<symbol id="box" overflow="visible" viewBox="0,0,160,100">
		<rect x="1" y="1" width="158" height="98" fill="#00000000" stroke="#FFFFFF" stroke-width="2" />
	</symbol>
	<symbol id="double-box" overflow="visible" viewBox="0,0,160,100">
		<rect x="1" y="1" width="158" height="98" fill="#00000000" stroke="#FFFFFF" stroke-width="2" />
		<rect x="11" y="11" width="138" height="78" fill="#00000000" stroke="#FFFFFF" stroke-width="2" />
	</symbol>
	<symbol id="card" overflow="visible"  viewBox="0,0,160,100">
		<path d="M1 99L159 99L159 35L125 1L1 1L1 99Z" fill="#00000000" stroke="#FFFFFF" stroke-width="2" />
		<path d="M125 1V35H159" fill="#00000000" stroke="#FFFFFF" stroke-width="2" />
	</symbol>
	<symbol id="class" overflow="visible" viewBox="0,0,160,100">
		<rect x="1" y="1" width="158" height="98" fill="#00000000" stroke="#FFFFFF" stroke-width="2" />
		<line x1="1" y1="25" x2="159" y2="25" stroke="#FFFFFF" stroke-width="2" />
	</symbol>
	<symbol id="component" overflow="visible" viewBox="0,0,160,100">
		<rect x="11" y="1" width="158" height="98" fill="#00000000" stroke="#FFFFFF" stroke-width="2" />
		<rect x="1" y="20" width="30" height="20" fill="#00000000" stroke="#FFFFFF" stroke-width="2" />
		<rect x="1" y="60" width="30" height="20" fill="#00000000" stroke="#FFFFFF" stroke-width="2" />
	</symbol>
	<symbol id="deployment" overflow="visible" viewBox="0,0,160,100">
		<rect x="1" y="1" width="158" height="98" fill="#00000000" stroke="#FFFFFF" stroke-width="2" />
		<rect x="11" y="11" width="10" height="20" fill="#00000000" stroke="#FFFFFF" stroke-width="2" />
		<rect x="11" y="41" width="10" height="20" fill="#00000000" stroke="#FFFFFF" stroke-width="2" />
		<rect x="11" y="71" width="10" height="20" fill="#00000000" stroke="#FFFFFF" stroke-width="2" />
		<rect x="141" y="11" width="10" height="20" fill="#00000000" stroke="#FFFFFF" stroke-width="2" />
		<rect x="141" y="41" width="10" height="20" fill="#00000000" stroke="#FFFFFF" stroke-width="2" />
		<rect x="141" y="71" width="10" height="20" fill="#00000000" stroke="#FFFFFF" stroke-width="2" />
	</symbol>
	<symbol id="diamond" overflow="visible"  viewBox="0,0,160,100">
		<path d="M1 49L80 99L159 49L80 1L1 49Z" fill="#00000000" stroke="#FFFFFF" stroke-width="2" />
	</symbol>
	<symbol id="cylinder" overflow="visible"  viewBox="0,0,160,100">
		<ellipse cx="80" cy="20" rx="79" ry="9" fill="#00000000" stroke="#FFFFFF" stroke-width="2" />
		<path d="M1 21V90" fill="#00000000" stroke="#FFFFFF" stroke-width="2" />
		<path d="M159 21V90" fill="#00000000" stroke="#FFFFFF" stroke-width="2" />
		<path d="M1 90A80 10 0 0 0 159 90" fill="#00000000" stroke="#FFFFFF" stroke-width="2" />
	</symbol>
	<symbol id="document" overflow="visible" viewBox="0,0,160,100">
		<path d="M1 90V1H159V90" fill="#00000000" stroke="#FFFFFF" stroke-width="2" />
		<path d="M1 90A40 10 0 0 0 80 90" fill="#00000000" stroke="#FFFFFF" stroke-width="2" />
		<path d="M159 90A40 10 0 0 0 80 90" fill="#00000000" stroke="#FFFFFF" stroke-width="2" />
	</symbol>
	<symbol id="folder" overflow="visible" viewBox="0,0,160,100">
		<path d="M1 99V15L10 1H50L60 15H159V99Z" fill="#00000000" stroke="#FFFFFF" stroke-width="2" />
	</symbol>
	<symbol id="octagon" overflow="visible" viewBox="0,0,160,100">
		<path d="M1 31V70L31 99H129L159 70V30L129 1H31Z" fill="#00000000" stroke="#FFFFFF" stroke-width="2" />
	</symbol>
	<symbol id="oval" overflow="visible" viewBox="0,0,160,100">
		<ellipse rx="79" ry="49" cx="80" cy="50" fill="#00000000" stroke="#FFFFFF" stroke-width="2" />
	</symbol>
	<symbol id="rounded-rectangle" overflow="visible" viewBox="0,0,160,100">
		<rect x="1" y="1" width="158" height="98"
		rx="30" ry="30" fill="#00000000" stroke="#FFFFFF" stroke-width="2" />
	</symbol>
	<symbol id="ruler" overflow="visible" viewBox="0,0,160,100">
		<rect x="1" y="1" width="158" height="98" fill="#00000000" stroke="#FFFFFF" stroke-width="2" />
		<path d="M10 1V5M20 1V10M30 1V5M40 1V15M50 1V5M60 1V10M70 1V5M80 1V15M90 1V5M100 1V10M110 1V5M120 1V15M130 1V5M140 1V10M150 1V5" stroke="#FFFFFF" stroke-width="2" />
		<path d="M1 20H159" stroke="#FFFFFF" stroke-width="2" />
	</symbol>
	<symbol id="interface" overflow="visible" viewBox="0,0,160,100">
		<path d="M41 99V1H31V99H119A50 50 0 0 0 119 1H41" stroke="#FFFFFF" stroke-width="2" />
		<rect x="1" y="20" width="30" height="10" fill="#00000000" stroke="#FFFFFF" stroke-width="2" />
		<rect x="1" y="70" width="30" height="10" fill="#00000000" stroke="#FFFFFF" stroke-width="2" />
	</symbol>
	<symbol id="trapezoid" overflow="visible" viewBox="0,0,160,100">
	    <path d="M 0,100 20,0 h 120 l 20,100 z" fill="#00000000" stroke="#FFFFFF" stroke-width="2" />
	</symbol>
</defs>

<use href="#octagon" x="370.98" y="315.35" width="114.51" height="15.32" fill="#881337" stroke="#FFF000000FFF" stroke-width="2.00" />
<text x="434.98" y="323.01" font-size="48">⚠️</text><text x="428.24" y="294.21" text-anchor="middle" font-family="Noto Sans" font-size="12.00" fill="#111827" dominant-baseline="middle">&lt;FONT COLOR=&quot;#FFFFFF&quot;&gt;&lt;B&gt;Risk&lt;/B&gt;</text><text x="428.24" y="308.61" text-anchor="middle" font-family="Noto Sans" font-size="12.00" fill="#111827" dominant-baseline="middle">&lt;B&gt;Reference Risk&lt;/B&gt;</text><text x="428.24" y="323.01" text-anchor="middle" font-family="Noto Sans" font-size="12.00" fill="#111827" dominant-baseline="middle">Risk raised by threats and mitigated by controls in the relationship-matrix refe</text><text x="428.24" y="337.41" text-anchor="middle" font-family="Noto Sans" font-size="12.00" fill="#111827" dominant-baseline="middle">rence model.</text><text x="428.24" y="351.81" text-anchor="middle" font-family="Noto Sans" font-size="12.00" fill="#111827" dominant-baseline="middle">&lt;/FONT&gt;</text><use href="#box" x="1053.65" y="154.04" width="115.10" height="15.32" fill="#334155" stroke="#FFF000000FFF" stroke-width="2.00" />
<text x="1117.65" y="161.70" font-size="48">🛡️</text><text x="1111.20" y="132.90" text-anchor="middle" font-family="Noto Sans" font-size="12.00" fill="#111827" dominant-baseline="middle">&lt;FONT COLOR=&quot;#FFFFFF&quot;&gt;&lt;B&gt;Asset&lt;/B&gt;</text><text x="1111.20" y="147.30" text-anchor="middle" font-family="Noto Sans" font-size="12.00" fill="#111827" dominant-baseline="middle">&lt;B&gt;Reference Asset&lt;/B&gt;</text><text x="1111.20" y="161.70" text-anchor="middle" font-family="Noto Sans" font-size="12.00" fill="#111827" dominant-baseline="middle">Asset owned by an actor, protected by a control, and derived from an artifact in</text><text x="1111.20" y="176.10" text-anchor="middle" font-family="Noto Sans" font-size="12.00" fill="#111827" dominant-baseline="middle">the reference model.</text><text x="1111.20" y="190.50" text-anchor="middle" font-family="Noto Sans" font-size="12.00" fill="#111827" dominant-baseline="middle">&lt;/FONT&gt;</text><use href="#octagon" x="393.38" y="155.41" width="69.73" height="12.57" fill="#4c0519" stroke="#FFF000000FFF" stroke-width="2.00" />
<text x="457.38" y="161.70" font-size="48">🐛</text><text x="428.24" y="140.10" text-anchor="middle" font-family="Noto Sans" font-size="12.00" fill="#111827" dominant-baseline="middle">&lt;FONT COLOR=&quot;#FFFFFF&quot;&gt;&lt;B&gt;Threat&lt;/B&gt;</text><text x="428.24" y="154.50" text-anchor="middle" font-family="Noto Sans" font-size="12.00" fill="#111827" dominant-baseline="middle">&lt;B&gt;Reference Threat&lt;/B&gt;</text><text x="428.24" y="168.90" text-anchor="middle" font-family="Noto Sans" font-size="12.00" fill="#111827" dominant-baseline="middle">Threat presented by an actor that raises a risk.</text><text x="428.24" y="183.30" text-anchor="middle" font-family="Noto Sans" font-size="12.00" fill="#111827" dominant-baseline="middle">&lt;/FONT&gt;</text><use href="#octagon" x="1902.35" y="154.04" width="115.69" height="15.32" fill="#4c0519" stroke="#FFF000000FFF" stroke-width="2.00" />
<text x="1966.35" y="161.70" font-size="48">🐛</text><text x="1960.20" y="132.90" text-anchor="middle" font-family="Noto Sans" font-size="12.00" fill="#111827" dominant-baseline="middle">&lt;FONT COLOR=&quot;#FFFFFF&quot;&gt;&lt;B&gt;Threat&lt;/B&gt;</text><text x="1960.20" y="147.30" text-anchor="middle" font-family="Noto Sans" font-size="12.00" fill="#111827" dominant-baseline="middle">&lt;B&gt;Secondary Threat&lt;/B&gt;</text><text x="1960.20" y="161.70" text-anchor="middle" font-family="Noto Sans" font-size="12.00" fill="#111827" dominant-baseline="middle">Secondary threat used as a target for actor threat presentation in the reference</text><text x="1960.20" y="176.10" text-anchor="middle" font-family="Noto Sans" font-size="12.00" fill="#111827" dominant-baseline="middle">model.</text><text x="1960.20" y="190.50" text-anchor="middle" font-family="Noto Sans" font-size="12.00" fill="#111827" dominant-baseline="middle">&lt;/FONT&gt;</text><path d="M 428.24 207.07 C 428.24 222.63 428.24 240.43 428.24 257.30 L 428.24 267.66" fill="none" stroke="#000000" stroke-width="2.00" /><text x="449.74" y="242.35" text-anchor="middle" font-family="Noto Sans" font-size="12.00" fill="#111827" dominant-baseline="middle">raises</text></svg>