<?xml version="1.0" encoding="UTF-8"?><svg xmlns="http://www.w3.org/2000/svg" xmlns:svg="http://www.w3.org/2000/svg" width="10.6in" viewBox="0 0 3180 3990" height="13.3in" id="Shapes" preserveAspectRatio="xMidYMid meet" version="1.1"><style>g.aurora-symbol &gt; circle,
		g.aurora-symbol &gt; ellipse,
		g.aurora-symbol &gt; line,
		g.aurora-symbol &gt; mpath,
		g.aurora-symbol &gt; path,
		g.aurora-symbol &gt; polygon,
		g.aurora-symbol &gt; polyline,
		g.aurora-symbol &gt; rect {
			fill:inherit;
			font-family: 'Noto Sans', Arial, Helvetica, sans-serif;
			font-size:16;
			line-height:1.2;
			stroke-linecap:round;
			stroke-linejoin:round;
			stroke-width:4;
			stroke:inherit;
		}
		text {
			text-anchor:middle;
		}
		.aurora-icon {}
		.aurora-symbol {}</style><defs><linearGradient y1="-108.3677" gradientTransform="matrix(-1 0 0 1 0 0)" gradientUnits="userSpaceOnUse" x2="-110.7736" y2="-79.0657" x1="-96.6808"><stop offset="0.3098" stop-color="#FCE8B2" /><stop offset="0.3987" stop-color="#FFCC80" /></linearGradient><linearGradient y1="31.602326" gradientUnits="userSpaceOnUse" y2="31.602326" x2="71.592974" x1="71.592974" gradientTransform="matrix(0.9922 0.1244 -0.1244 0.9922 0 0)"><stop stop-color="#5D4037" offset="2.331792e-03" /><stop offset="1" stop-color="#795548" /></linearGradient><g class="aurora-symbol" id="diamond"><rect height="368" y="41" x="1" width="718" /><path d="M 1,21 360,1 719,21 360,41 z" /><path d="M 1,429 360,409 719,429 360,449 z" /></g><g class="aurora-symbol" id="double-rectangle"><rect width="718" height="448" y="1" x="1" /><rect height="408" y="21" width="678" x="21" /></g><linearGradient gradientTransform="matrix(0.9817 -0.1905 0.1905 0.9817 0 0)" gradientUnits="userSpaceOnUse" y1="102.595035" x2="29.308096" id="i-audio-SVGID_1_" x1="26.377996" y2="102.595035"><stop offset="0.2016" stop-color="#212121" /><stop stop-opacity="0" stop-color="#212121" offset="1" /></linearGradient><linearGradient x1="-99.276476" y2="78.212167" id="i-audio-SVGID_2_" y1="78.212167" gradientTransform="matrix(-0.9817 -0.1905 -0.1905 0.9817 0 0)" gradientUnits="userSpaceOnUse" x2="-96.346476"><stop offset="0.2016" stop-color="#212121" /><stop offset="1" stop-color="#212121" stop-opacity="0" /></linearGradient><g id="i-bolt"><path d="M69.68,54.04 C69.68,54.04 98.65,7.63 99.31,6.47 C99.97,5.31 100.11,3.18 98.29,3.18 C96.47,3.18 51.34,49.25 51.34,49.25 L19.29,68.25 C19.29,68.25 17.14,69.57 17.47,71.22 C17.8,72.87 19.24,72.94 19.9,72.94 C20.56,72.94 54.75,72.76 56.74,72.7 C59.21,72.63 58.6,76.14 58.6,76.14 L36.96,110.16 C36.96,110.16 27.51,123.24 27.51,124.13 C27.51,125.44 29.09,126.09 30.56,125.21 C31.7,124.53 105.4,62.08 108.65,57.79 C109.53,56.62 109.98,53.54 106.35,53.54 C102.72,53.54 73.81,61.96 73.81,61.96 L69.68,54.04 Z" fill="#FEB804" /><path d="M64.61,50.35 C63.72,51.57 63.48,53.61 65.4,53.73 C67.31,53.84 106.35,53.55 106.35,53.55 C106.35,53.55 78.46,79.18 70.02,86.83 C61.58,94.48 33.63,119.26 31.75,121.01 C29.91,122.73 28.24,124.31 27.56,124.09 C27.45,124.06 27.31,123.47 29.94,119.14 C32.34,115.19 55.38,76.58 56.28,75.12 C57.18,73.66 57.97,72.42 58.42,71.74 C58.87,71.06 60.33,67.35 57.29,67.35 C54.25,67.35 19.29,68.25 19.29,68.25 C19.29,68.25 43.44,47.76 50.42,42.25 C57.4,36.74 96.96,3.18 98.29,3.18 C99.62,3.18 65.51,49.12 64.61,50.35 Z" fill="#FFC927" /><path d="M63.45,70.75 C65.25,68.16 67.02,67.97 68.09,68.61 C69.47,69.44 69.61,71.35 67.87,73.66 C65.13,77.32 44.99,104.27 44.22,105.22 C42.76,107.02 40.61,106.23 42.01,103.62 C43.18,101.46 61.59,73.43 63.45,70.75 Z" fill="#FFE567" /><path d="M34.83,65.49 C31.38,67.8 28.17,64.35 30.48,61.82 C32.79,59.29 47.95,46.67 51.02,44.06 C54.09,41.45 72.01,25.86 73.4,24.74 C75.24,23.26 76.38,24.76 75.22,26.3 C74.07,27.84 61.4,40.5 55.81,45.64 C51.49,49.62 38.11,63.29 34.83,65.49 Z" fill="#FFE567" /></g><linearGradient gradientUnits="userSpaceOnUse" y1="34.5524" x1="42.079" x2="83.8122" y2="48.0625" id="i-bomb-SVGID_1_"><stop stop-color="#FFF9C4" stop-opacity="0.1" offset="0" /><stop offset="1.516624e-03" stop-color="#FFF9C4" stop-opacity="0.1007" /><stop stop-color="#FFFCA6" stop-opacity="0.2626" offset="0.3781" /><stop offset="0.7007" stop-opacity="0.4014" stop-color="#FFFE94" /><stop offset="0.93" stop-color="#FFFF8D" stop-opacity="0.5" /></linearGradient><linearGradient gradientUnits="userSpaceOnUse" y2="42.9353" y1="57.3021" x1="102.0288" x2="91.1394" id="i-bomb-SVGID_2_"><stop stop-opacity="0" stop-color="#FFF9C4" offset="0.1096" /><stop stop-color="#FFFF8D" offset="1" /></linearGradient><radialGradient id="i-card_index-SVGID_1_" r="11.1114" cx="44.0873" cy="-34.9895" gradientTransform="matrix(1 0 0 -1 0 0)" gradientUnits="userSpaceOnUse"><stop offset="0.1038" stop-color="#1E88E5" /><stop stop-color="#1E88E5" offset="0.1531" /></radialGradient><radialGradient cx="77.5873" gradientUnits="userSpaceOnUse" id="i-collision-SVGID_1_" r="26.3653" cy="75.7353"><stop stop-color="#FFFDE7" offset="0" /><stop offset="1" stop-color="#FFF176" /></radialGradient><linearGradient y1="27.9228" id="i-corner_square-SVGID_10_" y2="26.6475" gradientUnits="userSpaceOnUse" x1="23.5756" x2="24.8509"><stop offset="0" stop-opacity="0" stop-color="#5D4037" /><stop stop-color="#5D4037" offset="1" /></linearGradient><linearGradient x1="79.9737" id="i-corner_square-SVGID_11_" y1="84.3209" gradientUnits="userSpaceOnUse" x2="81.249" y2="83.0456"><stop stop-opacity="0" offset="0" stop-color="#5D4037" /><stop offset="1" stop-color="#5D4037" /></linearGradient><linearGradient y1="103.1203" x1="98.7731" x2="100.0484" gradientUnits="userSpaceOnUse" y2="101.845" id="i-corner_square-SVGID_12_"><stop stop-opacity="0" offset="0" stop-color="#5D4037" /><stop stop-color="#5D4037" offset="1" /></linearGradient><linearGradient y1="97.3222" x1="30.6778" id="i-corner_square-SVGID_1_" x2="81.2879" y2="46.7121" gradientUnits="userSpaceOnUse"><stop offset="0.5456" stop-color="#FDD835" /><stop offset="0.7758" stop-color="#F9A825" /></linearGradient><linearGradient y1="18.721" y2="17.1635" x2="15.5363" x1="13.9788" gradientUnits="userSpaceOnUse" id="i-corner_square-SVGID_2_"><stop stop-opacity="0" offset="0" stop-color="#5D4037" /><stop offset="1" stop-color="#5D4037" /></linearGradient><linearGradient id="i-corner_square-SVGID_3_" y2="35.9629" x2="34.3357" gradientUnits="userSpaceOnUse" x1="32.7782" y1="37.5204"><stop offset="0" stop-color="#5D4037" stop-opacity="0" /><stop offset="1" stop-color="#5D4037" /></linearGradient><linearGradient y1="56.3197" id="i-corner_square-SVGID_4_" x1="51.5776" y2="54.7623" gradientUnits="userSpaceOnUse" x2="53.135"><stop stop-opacity="0" stop-color="#5D4037" offset="0" /><stop stop-color="#5D4037" offset="1" /></linearGradient><linearGradient x2="71.9344" y1="75.1191" y2="73.5617" x1="70.377" id="i-corner_square-SVGID_5_" gradientUnits="userSpaceOnUse"><stop stop-color="#5D4037" stop-opacity="0" offset="0" /><stop offset="1" stop-color="#5D4037" /></linearGradient><linearGradient id="i-corner_square-SVGID_6_" x2="90.7338" y2="92.361" y1="93.9185" x1="89.1763" gradientUnits="userSpaceOnUse"><stop stop-color="#5D4037" stop-opacity="0" offset="0" /><stop offset="1" stop-color="#5D4037" /></linearGradient><linearGradient y2="111.1604" x2="109.5332" id="i-corner_square-SVGID_7_" x1="107.9757" y1="112.7179" gradientUnits="userSpaceOnUse"><stop stop-opacity="0" stop-color="#5D4037" offset="0" /><stop stop-color="#5D4037" offset="1" /></linearGradient><linearGradient id="i-corner_square-SVGID_8_" y2="45.4469" x2="43.6503" y1="46.7222" x1="42.375" gradientUnits="userSpaceOnUse"><stop stop-color="#5D4037" stop-opacity="0" offset="0" /><stop offset="1" stop-color="#5D4037" /></linearGradient><linearGradient x1="61.1744" id="i-corner_square-SVGID_9_" gradientUnits="userSpaceOnUse" x2="62.4496" y1="65.5216" y2="64.2463"><stop stop-opacity="0" offset="0" stop-color="#5D4037" /><stop stop-color="#5D4037" offset="1" /></linearGradient><radialGradient r="60.9731" cy="-5.1763" id="i-desktop-SVGID_1_" cx="46.4654" gradientUnits="userSpaceOnUse"><stop offset="0" stop-color="#2F7889" /><stop offset="1" stop-color="#424242" /></radialGradient><radialGradient cx="50.188253" id="i-earth-SVGID_1_" gradientTransform="matrix(0.6257 0.78 -0.5815 0.4665 0 0)" cy="-21.611971" gradientUnits="userSpaceOnUse" r="90.9511"><stop stop-color="#17A1F3" offset="0.506" /><stop offset="0.7668" stop-color="#1B7FFA" /><stop stop-color="#1366F0" offset="0.9624" /><stop stop-color="#1160EE" offset="1" /></radialGradient><radialGradient gradientTransform="matrix(0.3201 -0.9474 3.2189 1.0875 0 0)" r="21.3849" cy="23.330051" id="i-earth-SVGID_2_" gradientUnits="userSpaceOnUse" cx="-33.632594"><stop stop-color="#E3DDA6" offset="0.1178" /><stop stop-color="#E3DDA6" offset="0.9067" stop-opacity="0.0832" /><stop stop-opacity="0" stop-color="#E3DDA6" offset="0.9783" /></radialGradient><radialGradient r="18.6191" gradientTransform="matrix(-0.7604 -0.6495 1.1303 -1.3232 0 0)" cx="-94.558262" cy="14.19532" id="i-earth-SVGID_3_" gradientUnits="userSpaceOnUse"><stop offset="0.1178" stop-color="#E3DDA6" /><stop stop-color="#E3DDA6" stop-opacity="0.0832" offset="0.9067" /><stop offset="0.9783" stop-color="#E3DDA6" stop-opacity="0" /></radialGradient><radialGradient r="17.8918" gradientTransform="matrix(0.2128 -0.9771 1.9056 0.4151 0 0)" cy="43.660539" id="i-earth-SVGID_4_" cx="-102.99574" gradientUnits="userSpaceOnUse"><stop offset="0" stop-color="#E3DDA6" /><stop stop-color="#E3DDA6" stop-opacity="0" offset="0.818" /></radialGradient><radialGradient cx="65.0251" id="i-globe_with_meridians-SVGID_1_" r="105.9248" cy="5.0371" gradientUnits="userSpaceOnUse"><stop offset="0.2102" stop-color="#01B3F7" /><stop offset="0.4574" stop-color="#01B3F7" /></radialGradient><g id="i-hammer"><path d="M121.37,116.03 L114.7,121.8 C112.13,124.02 108.23,123.73 106.03,121.15 L26.96,25.71 L37.13,18.06 L121.88,107.44 C124.16,109.94 123.93,113.81 121.37,116.03 Z" fill="#A06841" /><path d="M34.19,34.43 L53.01,57.15 C55.94,52.73 57.44,47.43 58.64,40.74 L40.47,21.58 C39,22.79 37.73,24.24 36.76,25.87 C35.21,28.46 34.4,31.41 34.19,34.43 Z" fill="#7D5133" /><path fill="#82AEC0" d="M71.49,4.73 C54.22,4.53 47.83,6.06 38.21,14.37 C35.33,16.86 32.44,19.35 29.56,21.84 C26.42,24.55 22.25,26.91 22.91,31.6 C23.15,33.31 23.68,35.04 23.36,36.74 C23.05,38.34 21.19,39.14 19.86,38.23 C18.62,37.37 17.24,36.32 15.71,36.14 C14.27,35.98 12.76,36.43 11.68,37.39 C11.68,37.39 4.99,43.34 4.99,43.34 C4.99,43.34 4.03,47.23 11.52,55.71 C19.01,64.19 23.83,63.58 23.83,63.58 C23.83,63.58 30.12,58.05 30.12,58.05 C31.18,57.12 31.72,55.76 31.7,54.35 C31.67,52.71 30.71,51.44 30.14,49.96 C30.03,49.68 29.4,48.68 30.5,47.78 C31.48,46.93 33.49,47.22 34.63,47.53 C35.78,47.84 36.87,48.33 38.03,48.63 C40.28,49.22 41.33,48.17 42.9,46.82 C44.28,45.62 52.62,38.42 55.4,36.02 C60.95,31.22 52.49,22.82 52.49,22.82 C48.49,18.32 72.66,6.98 72.66,6.98 C74.42,6.35 73.88,4.76 71.49,4.73 Z" /><path d="M38.02,48.63 C38.49,48.75 38.9,48.79 39.28,48.78 C39.28,48.72 39.28,48.65 39.28,48.59 C39.18,47.51 38.59,46.54 38,45.64 C34.27,39.96 29.63,34.88 24.31,30.64 C23.87,30.29 23.41,29.94 22.94,29.64 C22.84,30.25 22.82,30.9 22.92,31.61 C23.16,33.32 23.69,35.05 23.37,36.75 C23.03,38.5 21.2,38.99 19.79,38.33 C23.44,40.69 26.58,43.84 28.85,47.54 C29.16,48.04 29.47,48.57 29.83,49.04 C29.88,48.55 30.1,48.09 30.51,47.78 C31.49,46.93 33.5,47.22 34.64,47.53 C35.77,47.84 36.87,48.33 38.02,48.63 Z" fill="#2F7889" /><path d="M17.43,50.74 C22.67,56.22 25.62,61.91 24.02,63.45 C22.41,64.99 16.86,61.79 11.61,56.31 C6.36,50.83 3.38,44.89 4.98,43.35 C6.58,41.81 12.19,45.26 17.43,50.74 Z" fill="#2F7889" /><path d="M37.85,22.4 C42.02,20.62 45.74,16.82 50.59,12.63 C51.98,11.43 53.74,10.3 55.54,9.45 C56.21,9.13 55.97,8.11 55.22,8.13 C52.72,8.17 50.49,8.93 48.3,9.88 C45.23,11.21 42.53,13.24 39.91,15.32 C38.12,16.75 33.91,20.3 31.26,22.54 C30.77,22.96 31.15,23.61 31.8,23.62 C33.68,23.63 34.73,23.73 37.85,22.4 Z" fill="#B9E4EA" /><path d="M11.57,39.81 C9.81,41.79 12.05,42.33 16.01,45.6 C18.8,47.91 21.76,45.77 21.79,43.61 C21.81,41.67 21.33,40.63 18.5,38.85 C15.68,37.07 13.17,38.01 11.57,39.81 Z" fill="#B9E4EA" /></g><linearGradient y2="35.5747" y1="7.8208" x2="37.4519" x1="31.5145" id="i-industrial-SVGID_1_" gradientUnits="userSpaceOnUse"><stop offset="0.368" stop-color="#E0E0E0" /><stop stop-color="#C8C8C8" offset="0.616" /><stop stop-color="#B6B6B6" offset="0.7769" /></linearGradient><linearGradient gradientUnits="userSpaceOnUse" x1="67.6666" y1="9.75" x2="73.0918" y2="35.1095" id="i-industrial-SVGID_2_"><stop stop-color="#E0E0E0" offset="0.4152" /><stop offset="0.6346" stop-color="#C8C8C8" /><stop stop-color="#B6B6B6" offset="0.7769" /></linearGradient><radialGradient r="75.4649" cy="3.627277" id="i-laptop-SVGID_1_" cx="48.4085" gradientUnits="userSpaceOnUse" gradientTransform="matrix(1 0 0 1.0843 0 0)"><stop offset="0" stop-color="#2F7889" /><stop offset="1" stop-color="#424242" /></radialGradient><g id="i-large_blue_diamond"><path d="M69.54,6.37 L121.74,58.37 C124.73,61.5 124.64,66.45 121.54,69.47 L69.54,121.67 C66.42,124.79 61.36,124.79 58.24,121.67 L6.24,69.47 C3.2,66.43 3.11,61.52 6.04,58.37 L58.24,6.37 C61.36,3.25 66.42,3.25 69.54,6.37 Z" fill="#1976D2" /><path fill="#2196F3" d="M64.64,10.47 L113.14,58.87 C115.93,61.76 115.85,66.36 112.96,69.15 C112.95,69.16 112.95,69.16 112.94,69.17 L64.54,117.67 C61.64,120.57 56.95,120.57 54.05,117.68 C54.05,117.68 54.05,117.68 54.04,117.67 L5.74,69.17 C2.84,66.38 2.75,61.78 5.53,58.88 C5.53,58.88 5.53,58.88 5.54,58.87 L54.14,10.47 C57.03,7.57 61.73,7.56 64.64,10.47 C64.63,10.46 64.64,10.46 64.64,10.47 Z" /><path fill="#90CAF9" d="M52.84,17.67 C51.24,18.77 19.74,49.97 19.74,49.97 C19.74,49.97 17.14,52.27 18.94,54.67 C20.64,56.87 23.24,55.77 24.54,54.57 C25.84,53.37 54.24,25.57 55.44,24.17 C56.63,22.58 56.86,20.48 56.04,18.67 C55.24,17.07 53.94,16.87 52.84,17.67 Z" /><path d="M18.74,60.48 A3.3 3.3 0 1 1 12.14,60.48 A3.3 3.3 0 1 1 18.74,60.48 Z" fill="#90CAF9" /></g><linearGradient y1="64" x2="105.2524" gradientUnits="userSpaceOnUse" id="i-level_slider-SVGID_1_" x1="22.7476" y2="64"><stop offset="0" stop-color="#EEEEEE" /><stop stop-color="#757575" offset="1" /></linearGradient><linearGradient y2="84.4293" x1="89.1768" id="i-lock_and_key-SVGID_1_" y1="84.4293" x2="78.997" gradientUnits="userSpaceOnUse"><stop stop-color="#9E740B" offset="0" /><stop offset="0.3063" stop-opacity="0.963" stop-color="#9E740B" /></linearGradient><radialGradient cx="-54.832331" cy="145.819187" r="37.7164" gradientTransform="matrix(-0.077 -0.997 0.4971 -0.0384 0 0)" gradientUnits="userSpaceOnUse" id="i-lock_and_key-SVGID_2_"><stop stop-color="#3D8192" offset="0.1561" /><stop offset="0.2773" stop-color="#3D8192" /></radialGradient><linearGradient y1="13.841919" y2="13.841919" x2="95.237627" gradientUnits="userSpaceOnUse" id="i-magic_wand-SVGID_1_" gradientTransform="matrix(0.7071 0.7071 -0.7895 0.7895 0 0)" x1="86.479627"><stop offset="0.5947" stop-color="#616161" /><stop stop-color="#565656" offset="0.7746" /><stop offset="1" stop-color="#424242" /></linearGradient><linearGradient y1="34.5181" id="i-magic_wand-SVGID_2_" x1="88.8798" gradientUnits="userSpaceOnUse" y2="41.3038" x2="95.6655"><stop offset="0.2622" stop-color="#F5F5F5" /><stop offset="0.4658" stop-color="#EAEAEA" /><stop offset="0.8221" stop-color="#CDCDCD" /><stop stop-color="#BDBDBD" offset="0.9891" /></linearGradient><linearGradient y1="109.4758" x2="20.7149" x1="13.9134" y2="116.2774" gradientUnits="userSpaceOnUse" id="i-magic_wand-SVGID_3_"><stop stop-color="#F5F5F5" offset="0.2622" /><stop offset="0.4658" stop-color="#EAEAEA" /><stop offset="0.8221" stop-color="#CDCDCD" /><stop stop-color="#BDBDBD" offset="0.9891" /></linearGradient><linearGradient x1="68.3861" gradientUnits="userSpaceOnUse" y2="25.5085" y1="60.1069" x2="102.9845" id="i-magic_wand-SVGID_4_"><stop offset="0" stop-opacity="0" stop-color="#FADA80" /><stop offset="1" stop-color="#FADA80" /></linearGradient><linearGradient y1="131.0027" x1="-2.5097" gradientUnits="userSpaceOnUse" id="i-magic_wand-SVGID_5_" y2="107.0592" x2="21.4338"><stop stop-color="#1A237E" offset="0" /><stop offset="0.186" stop-opacity="0.814" stop-color="#1D2A87" /><stop stop-opacity="0.5097" offset="0.4903" stop-color="#243DA0" /><stop offset="0.873" stop-color="#2F5CC7" stop-opacity="0.127" /><stop stop-color="#3367D6" stop-opacity="0" offset="1" /></linearGradient><radialGradient gradientUnits="userSpaceOnUse" id="i-magic_wand-SVGID_6_" cx="76.737425" r="14.7841" cy="20.173163" gradientTransform="matrix(0.9993 0.038 -0.038 0.9993 0 0)"><stop offset="0" stop-color="#FFEB3B" /><stop stop-color="#FBC02D" offset="1" /></radialGradient><radialGradient gradientUnits="userSpaceOnUse" cx="70.123886" cy="94.354357" gradientTransform="matrix(0.9392 -0.3435 0.3435 0.9392 0 0)" r="11.883" id="i-magic_wand-SVGID_7_"><stop stop-color="#FFEB3B" offset="0" /><stop stop-color="#FBC02D" offset="1" /></radialGradient><radialGradient r="16.4519" gradientUnits="userSpaceOnUse" id="i-magic_wand-SVGID_8_" cx="-0.374588" cy="-103.802895" gradientTransform="matrix(-0.2474 0.9423 -1.0398 -0.1868 0 0)"><stop stop-color="#FFEB3B" offset="0.3247" /><stop offset="1" stop-color="#FBC02D" /></radialGradient><radialGradient gradientUnits="userSpaceOnUse" id="i-magic_wand-SVGID_9_" r="93.7294" gradientTransform="matrix(0.8599 0.5105 -0.306 0.5153 0 0)" cx="115.543285" cy="21.547367"><stop offset="0" stop-color="#FFEE58" stop-opacity="0" /><stop stop-color="#FDD835" offset="1" /></radialGradient><linearGradient y1="18.0245" x1="20.3852" y2="44.6159" x2="36.781" id="i-magnifying_glass_tilted_left-SVGID_1_" gradientUnits="userSpaceOnUse"><stop stop-color="#FFFFFF" offset="0.2853" /><stop stop-opacity="0" stop-color="#FFFFFF" offset="1" /></linearGradient><linearGradient gradientUnits="userSpaceOnUse" x1="58.9514" x2="63.0853" y1="95.509" id="i-magnifying_glass_tilted_left-SVGID_2_" y2="52.792"><stop stop-color="#FFFFFF" offset="0.2853" /><stop stop-color="#FFFFFF" offset="1" stop-opacity="0" /></linearGradient><g id="i-person"><path d="M115.1,120 L115.1,124 L12.9,124 L12.9,120 C12.9,104.3 32.8,96.7 54.9,95.1 L54.9,94 C45.6,91.2 37.3,84.2 33.2,72.7 C29,71.2 26.6,57.4 27.7,55.6 C26.9,49.8 21.4,4.3 64,4 L64,4 L64,4 C106.5,4.2 101.1,49.6 100.2,55.5 C101.3,57.3 98.9,71.1 94.7,72.6 C90.7,84.1 82.4,91.2 73.1,94 L73.1,95 C95.3,96.8 115.1,105.2 115.1,120 Z" fill="#1976D2" /></g><linearGradient x2="122.3705" id="i-pirate_flag-SVGID_1_" y2="-105.1593" gradientUnits="userSpaceOnUse" y1="-22.6583" gradientTransform="matrix(1 0 0 -1 0 0)" x1="5.3708"><stop stop-color="#FFFFFF" stop-opacity="0" offset="0" /><stop offset="0.8012" stop-color="#090909" stop-opacity="0.9151" /><stop offset="1" stop-color="#000000" /></linearGradient><linearGradient gradientUnits="userSpaceOnUse" y1="64.0025" x2="120.1718" id="i-pirate_flag-SVGID_2_" y2="64.0025" x1="4.8208"><stop stop-color="#BFBEBE" offset="1.200100e-03" /><stop stop-color="#212121" stop-opacity="0" offset="0.2342" /><stop stop-color="#212121" offset="0.8034" stop-opacity="0" /><stop stop-color="#BFBEBE" offset="1" /></linearGradient><linearGradient y2="114.1588" y1="16.0106" x1="66.8368" id="i-pirate_flag-SVGID_3_" x2="61.0349" gradientUnits="userSpaceOnUse"><stop offset="1.200100e-03" stop-color="#BFBEBE" /><stop offset="0.1974" stop-opacity="0" stop-color="#212121" /><stop stop-opacity="0" stop-color="#212121" offset="0.7498" /><stop offset="1" stop-color="#BFBEBE" /></linearGradient><radialGradient cy="53.465699" id="i-police_car_light-SVGID_1_" gradientUnits="userSpaceOnUse" r="43.9732" cx="64.563099" gradientTransform="matrix(0.9913 0 0 0.9913 0 0)"><stop stop-color="#FF6E40" offset="0.5718" /><stop offset="0.7682" stop-opacity="0.5414" stop-color="#FF7046" /><stop stop-color="#FF7555" stop-opacity="0" offset="1" /></radialGradient><linearGradient gradientUnits="userSpaceOnUse" x1="64.4965" y2="54.0362" x2="64.4965" y1="91.1479" id="i-ppe-SVGID_1_"><stop stop-color="#D6D6D6" offset="0" /><stop stop-color="#FFFFFF" offset="1" /></linearGradient><linearGradient gradientUnits="userSpaceOnUse" x1="64.6842" y2="2.1371" id="i-printer-SVGID_1_" x2="64.6842" y1="30.8268"><stop offset="0.5664" stop-color="#EEEEEE" /><stop offset="1" stop-color="#E0E0E0" /></linearGradient><radialGradient id="i-puzzle_piece-SVGID_1_" cx="62.1723" r="119.2249" gradientUnits="userSpaceOnUse" cy="-28.3001"><stop offset="0.5082" stop-color="#B7D118" /><stop stop-color="#B2D019" offset="0.5721" /><stop stop-color="#A5CD1D" offset="0.6427" /><stop stop-color="#8FC922" offset="0.7167" /><stop stop-color="#70C22A" offset="0.7928" /><stop stop-color="#48BA34" offset="0.8707" /><stop stop-color="#18B040" offset="0.9489" /><stop stop-color="#02AB46" offset="0.9813" /></radialGradient><g id="i-repeat_button"><path fill="#F77E00" d="M116,4 L12,4 C7.58,4 4,7.58 4,12 L4,116 C4,120.42 7.58,124 12,124 L116,124 C120.42,124 124,120.42 124,116 L124,12 C124,7.58 120.42,4 116,4 Z" /><path fill="#FF9800" d="M109.7,4 L11.5,4 C7.37,4.03 4.03,7.37 4,11.5 L4,109.4 C3.99,113.54 7.34,116.89 11.48,116.9 C11.49,116.9 11.49,116.9 11.5,116.9 L109.6,116.9 C113.74,116.91 117.09,113.56 117.1,109.42 C117.1,109.41 117.1,109.41 117.1,109.4 L117.1,11.5 C117.19,7.45 113.97,4.09 109.92,4 C109.85,4 109.77,4 109.7,4 Z" /><path d="M39.7,12.9 C39.7,10.6 38.1,9.9 28.9,10.2 C21.2,10.5 17.4,11.4 15.1,14.2 C12.8,17 12.2,22.7 12.1,29.5 C12.1,34.3 12.1,38.8 14.6,38.8 C18,38.8 18,30.9 20.8,26.5 C26.2,17.8 39.7,15.9 39.7,12.9 Z" fill="#FFBD52" opacity="0.75" /><path d="M83.6,67 C81.92,68.44 79.4,68.24 77.96,66.56 C77.35,65.85 77.01,64.94 77,64 L77,50 C77,48.9 76.1,48 75,48 L41,48 C36.2,48 29.5,49.5 29,60 L14.2,73.3 L14.2,73.3 C13.4,70.27 12.99,67.14 13,64 C13,46.3 25.5,32 41,32 L75,32 C76.1,32 77,31.1 77,30 L77,16 C77.02,13.79 78.83,12.02 81.04,12.04 C81.98,12.05 82.89,12.39 83.6,13 L107.6,37 C109.26,38.46 109.42,40.99 107.95,42.65 C107.84,42.78 107.72,42.89 107.6,43 L83.6,67 Z" fill="#FAFAFA" /><path d="M38.4,61 C40.08,59.56 42.6,59.76 44.04,61.44 C44.65,62.15 44.99,63.06 45,64 L45,78 C45,79.1 45.9,80 47,80 L81,80 C85.8,80 92.6,78.5 93,68 L107.8,54.7 L107.8,54.7 C108.61,57.73 109.01,60.86 109,64 C109,81.7 96.5,96 81,96 L47,96 C45.9,96 45,96.9 45,98 L45,112 C44.98,114.21 43.17,115.98 40.96,115.96 C40.02,115.95 39.11,115.61 38.4,115 L14.4,91 C12.74,89.54 12.58,87.01 14.05,85.35 C14.16,85.22 14.28,85.11 14.4,85 L38.4,61 Z" fill="#FAFAFA" /></g><linearGradient x1="72.45" gradientTransform="matrix(1 0 0 -1 0 0)" y1="-66.78" gradientUnits="userSpaceOnUse" id="i-robot-SVGID_10_" y2="-66.78" x2="97.45"><stop stop-color="#333333" offset="0" /><stop stop-color="#666666" offset="0.55" /><stop offset="1" stop-color="#333333" /></linearGradient><linearGradient x2="64.005" gradientUnits="userSpaceOnUse" gradientTransform="matrix(1 0 0 -1 0 0)" x1="64.005" id="i-robot-SVGID_1_" y1="-107.56" y2="-94.45"><stop stop-color="#E0E0E0" offset="0.12" /><stop offset="0.52" stop-color="#FFFFFF" /><stop offset="1" stop-color="#EAEAEA" /></linearGradient><linearGradient x2="54.85" id="i-robot-SVGID_2_" y1="-107.56" gradientUnits="userSpaceOnUse" x1="54.85" gradientTransform="matrix(1 0 0 -1 0 0)" y2="-94.47"><stop stop-color="#333333" offset="0" /><stop offset="0.55" stop-color="#666666" /><stop offset="1" stop-color="#333333" /></linearGradient><linearGradient gradientTransform="matrix(1 0 0 -1 0 0)" y2="-94.47" x1="64.06" gradientUnits="userSpaceOnUse" x2="64.06" y1="-107.56" id="i-robot-SVGID_3_"><stop offset="0" stop-color="#333333" /><stop stop-color="#666666" offset="0.55" /><stop offset="1" stop-color="#333333" /></linearGradient><linearGradient x1="73.15" x2="73.15" y2="-94.47" gradientTransform="matrix(1 0 0 -1 0 0)" gradientUnits="userSpaceOnUse" id="i-robot-SVGID_4_" y1="-107.56"><stop offset="0" stop-color="#333333" /><stop stop-color="#666666" offset="0.55" /><stop offset="1" stop-color="#333333" /></linearGradient><linearGradient gradientUnits="userSpaceOnUse" x1="82.8" y2="-94.47" gradientTransform="matrix(1 0 0 -1 0 0)" id="i-robot-SVGID_5_" x2="82.8" y1="-107.56"><stop offset="0" stop-color="#333333" /><stop stop-color="#666666" offset="0.55" /><stop offset="1" stop-color="#333333" /></linearGradient><linearGradient y2="-94.45" x1="45.2" y1="-107.54" id="i-robot-SVGID_6_" gradientUnits="userSpaceOnUse" x2="45.2" gradientTransform="matrix(1 0 0 -1 0 0)"><stop offset="0" stop-color="#333333" /><stop stop-color="#666666" offset="0.55" /><stop stop-color="#333333" offset="1" /></linearGradient><radialGradient gradientTransform="matrix(1 0 0 -1 0 0)" gradientUnits="userSpaceOnUse" id="i-robot-SVGID_7_" r="11.5" cy="-66.81" cx="42.64"><stop stop-color="#FFFFFF" offset="0.48" /><stop offset="0.77" stop-color="#FDFDFD" /><stop stop-color="#F6F6F6" offset="0.88" /><stop offset="0.96" stop-color="#EBEBEB" /><stop stop-color="#E0E0E0" offset="1" /></radialGradient><linearGradient id="i-robot-SVGID_8_" y2="-66.81" gradientTransform="matrix(1 0 0 -1 0 0)" gradientUnits="userSpaceOnUse" y1="-66.81" x2="55.14" x1="30.14"><stop stop-color="#333333" offset="0" /><stop offset="0.55" stop-color="#666666" /><stop offset="1" stop-color="#333333" /></linearGradient><radialGradient gradientTransform="matrix(1 0 0 -1 0 0)" gradientUnits="userSpaceOnUse" r="11.5" cy="-66.78" id="i-robot-SVGID_9_" cx="84.95"><stop offset="0.48" stop-color="#FFFFFF" /><stop stop-color="#FDFDFD" offset="0.77" /><stop offset="0.88" stop-color="#F6F6F6" /><stop stop-color="#EBEBEB" offset="0.96" /><stop offset="1" stop-color="#E0E0E0" /></radialGradient><linearGradient y2="9.625392" x1="67.460273" x2="83.856073" gradientUnits="userSpaceOnUse" y1="-16.966108" gradientTransform="matrix(0.9276 0.3736 -0.3736 0.9276 0 0)" id="i-search-SVGID_1_"><stop stop-color="#FFFFFF" offset="0.2853" /><stop stop-opacity="0" stop-color="#FFFFFF" offset="1" /></linearGradient><linearGradient gradientTransform="matrix(0.9775 0.2108 -0.2108 0.9775 0 0)" gradientUnits="userSpaceOnUse" id="i-search-SVGID_2_" x1="103.184486" y2="35.245958" x2="107.318386" y1="77.962958"><stop offset="0.2853" stop-color="#FFFFFF" /><stop stop-color="#FFFFFF" offset="1" stop-opacity="0" /></linearGradient><linearGradient id="i-spiral_calendar-SVGID_1_" y2="111.3521" gradientUnits="userSpaceOnUse" y1="68.6312" x2="117.0497" x1="117.0497"><stop stop-color="#616161" offset="0.3374" /><stop stop-opacity="0" offset="1" stop-color="#616161" /></linearGradient><linearGradient y1="14.1597" x2="38.0009" gradientUnits="userSpaceOnUse" x1="36.7916" y2="12.8573" id="i-straight_ruler-SVGID_10_"><stop offset="0" stop-opacity="0" stop-color="#5D4037" /><stop stop-color="#5D4037" offset="1" /></linearGradient><linearGradient x1="36.7916" y1="14.1597" id="i-straight_ruler-SVGID_11_" gradientUnits="userSpaceOnUse" y2="12.8573" x2="38.0009"><stop offset="0" stop-color="#5D4037" stop-opacity="0" /><stop offset="1" stop-color="#5D4037" /></linearGradient><linearGradient gradientTransform="matrix(-0.7071 -0.7071 -0.7071 0.7071 0 0)" x2="-89.782193" x1="-89.782193" y2="-28.08331" id="i-straight_ruler-SVGID_1_" y1="4.21379" gradientUnits="userSpaceOnUse"><stop stop-color="#FDD835" offset="0.5456" /><stop stop-color="#F9A825" offset="0.8933" /></linearGradient><linearGradient id="i-straight_ruler-SVGID_2_" gradientUnits="userSpaceOnUse" x1="74.4437" y2="50.5094" y1="51.8117" x2="75.653"><stop offset="0" stop-color="#5D4037" stop-opacity="0" /><stop offset="1" stop-color="#5D4037" /></linearGradient><linearGradient id="i-straight_ruler-SVGID_3_" x1="55.6176" y1="32.9857" y2="31.6834" x2="56.827" gradientUnits="userSpaceOnUse"><stop offset="0" stop-color="#5D4037" stop-opacity="0" /><stop stop-color="#5D4037" offset="1" /></linearGradient><linearGradient gradientUnits="userSpaceOnUse" y2="22.2655" id="i-straight_ruler-SVGID_4_" x2="47.4178" y1="23.5841" x1="46.1934"><stop offset="0" stop-color="#5D4037" stop-opacity="0" /><stop offset="1" stop-color="#5D4037" /></linearGradient><linearGradient y2="69.3354" x2="94.479" y1="70.6378" x1="93.2697" id="i-straight_ruler-SVGID_5_" gradientUnits="userSpaceOnUse"><stop stop-opacity="0" offset="0" stop-color="#5D4037" /><stop offset="1" stop-color="#5D4037" /></linearGradient><linearGradient x2="113.3043" y1="89.4631" id="i-straight_ruler-SVGID_6_" y2="88.1608" x1="112.095" gradientUnits="userSpaceOnUse"><stop stop-opacity="0" stop-color="#5D4037" offset="0" /><stop stop-color="#5D4037" offset="1" /></linearGradient><linearGradient y1="42.4101" gradientUnits="userSpaceOnUse" y2="41.0915" x2="66.2438" id="i-straight_ruler-SVGID_7_" x1="65.0194"><stop stop-opacity="0" offset="0" stop-color="#5D4037" /><stop offset="1" stop-color="#5D4037" /></linearGradient><linearGradient y2="59.9195" x1="83.8473" x2="85.0717" id="i-straight_ruler-SVGID_8_" y1="61.238" gradientUnits="userSpaceOnUse"><stop stop-opacity="0" stop-color="#5D4037" offset="0" /><stop offset="1" stop-color="#5D4037" /></linearGradient><linearGradient x1="102.6715" y2="78.7436" gradientUnits="userSpaceOnUse" y1="80.0622" x2="103.8959" id="i-straight_ruler-SVGID_9_"><stop stop-color="#5D4037" offset="0" stop-opacity="0" /><stop offset="1" stop-color="#5D4037" /></linearGradient><linearGradient y2="37.292519" x2="39.669602" y1="130.197619" id="i-tag-SVGID_1_" x1="116.908402" gradientTransform="matrix(0.9992 -0.0404 0.0404 0.9992 0 0)" gradientUnits="userSpaceOnUse"><stop stop-color="#FFCC80" offset="0" /><stop stop-color="#FFDCA6" offset="1" /></linearGradient><linearGradient id="i-tag-SVGID_2_" x1="31.6833" gradientUnits="userSpaceOnUse" x2="37.8228" y1="35.0641" y2="71.157"><stop stop-color="#82AEC0" offset="0" /><stop offset="1" stop-color="#2F7889" /></linearGradient><linearGradient x1="64.1107" x2="64.1107" id="i-trash_basket-SVGID_1_" y2="147.6283" gradientUnits="userSpaceOnUse" y1="89.9664"><stop stop-color="#82AFC1" offset="0" /><stop offset="1" stop-color="#2F7889" /></linearGradient><radialGradient gradientUnits="userSpaceOnUse" gradientTransform="matrix(1 0 0 0.4505 0 0)" id="i-trash_basket-SVGID_2_" cx="65.5303" r="52.279" cy="28.852018"><stop stop-color="#94D1E0" offset="0.7216" /><stop stop-opacity="0" stop-color="#94D1E0" offset="1" /></radialGradient><linearGradient gradientUnits="userSpaceOnUse" x1="54" gradientTransform="matrix(1 0 0 -1 0 0)" x2="54" y2="-97.768" y1="-93.75" id="i-video-SVGID_1_"><stop stop-color="#FF1744" offset="0" /><stop stop-color="#D50000" offset="1" /></linearGradient><linearGradient y1="-101.75" gradientTransform="matrix(1 0 0 -1 0 0)" gradientUnits="userSpaceOnUse" x2="54" x1="54" y2="-105.77" id="i-video-SVGID_2_"><stop stop-color="#76FF03" offset="0" /><stop offset="1" stop-color="#64DD17" /></linearGradient><linearGradient x1="64.36" gradientTransform="matrix(1 0 0 -1 0 0)" y1="-32.2699" x2="64.36" gradientUnits="userSpaceOnUse" y2="-110.9598" id="i-warning-SVGID_1_"><stop stop-color="#424242" offset="0" /><stop stop-color="#212121" offset="1" /></linearGradient><linearGradient gradientUnits="userSpaceOnUse" id="i-warning-SVGID_2_" x2="64.36" y1="-36.25" gradientTransform="matrix(1 0 0 -1 0 0)" x1="64.36" y2="-114.94"><stop stop-color="#424242" offset="0" /><stop offset="1" stop-color="#212121" /></linearGradient><g id="octagon" class="aurora-symbol"><path d="M 3.1250001,125 125,3.1249999 593.75001,1.9999911 l 121.875,121.8749989 0,204.25 -121.875,118.75 H 125 L 3.1250001,328.12499 Z" /></g><g id="rounded-rectangle" class="aurora-symbol"><rect y="1" ry="125" width="718" x="1" rx="125" height="448" /></g><g id="trapezoid" class="aurora-symbol"><path d="m 1,449 L 40,1 H 680 L 719,449 z" /></g></defs><style>@media print{#aurora-bg{display:none;}}</style><rect id="aurora-bg" x="0" y="0" width="3180" height="3990" style="fill:#ffffff;stroke:none;" /><g id="aurora-content" transform="translate(150 150)"><g id="edges"><path d="M 360.00 450.00 L 360.00 770.00" style="fill:none;stroke:#000000;stroke-width:2px;stroke-linecap:round;stroke-linejoin:round;" /><path d="M 352.00 1260.00 L 352.00 1428.00 L 360.00 1428.00 L 360.00 1580.00" style="fill:none;stroke:#000000;stroke-width:2px;stroke-linecap:round;stroke-linejoin:round;" /><path d="M 368.00 1260.00 L 368.00 1428.00 L 360.00 1428.00 L 360.00 1580.00" style="fill:none;stroke:#000000;stroke-width:2px;stroke-linecap:round;stroke-linejoin:round;" /><path d="M 360.00 1260.00 L 360.00 1340.00 L 824.00 1340.00 L 824.00 2310.00 L 352.00 2310.00 L 352.00 2390.00" style="fill:none;stroke:#000000;stroke-width:2px;stroke-linecap:round;stroke-linejoin:round;" /><path d="M 360.00 1260.00 L 360.00 1340.00 L 824.00 1340.00 L 824.00 2984.00 L 360.00 2984.00 L 360.00 3200.00" style="fill:none;stroke:#000000;stroke-width:2px;stroke-linecap:round;stroke-linejoin:round;" /><path d="M 1440.00 1260.00 L 1440.00 1428.00 L 360.00 1428.00 L 360.00 1580.00" style="fill:none;stroke:#000000;stroke-width:2px;stroke-linecap:round;stroke-linejoin:round;" /><path d="M 2520.00 1260.00 L 2520.00 1428.00 L 360.00 1428.00 L 360.00 1580.00" style="fill:none;stroke:#000000;stroke-width:2px;stroke-linecap:round;stroke-linejoin:round;" /><path d="M 360.00 2070.00 L 360.00 2238.00 L 368.00 2238.00 L 368.00 2390.00" style="fill:none;stroke:#000000;stroke-width:2px;stroke-linecap:round;stroke-linejoin:round;" /><path d="M 344.00 2070.00 L 344.00 2150.00 L 824.00 2150.00 L 824.00 2984.00 L 360.00 2984.00 L 360.00 3200.00" style="fill:none;stroke:#000000;stroke-width:2px;stroke-linecap:round;stroke-linejoin:round;" /><path d="M 360.00 2070.00 L 360.00 2174.00 L 2512.00 2174.00 L 2512.00 3200.00" style="fill:none;stroke:#000000;stroke-width:2px;stroke-linecap:round;stroke-linejoin:round;" /><path d="M 1440.00 2070.00 L 1440.00 1853.00 L 360.00 1853.00 L 360.00 1660.00" style="fill:none;stroke:#000000;stroke-width:2px;stroke-linecap:round;stroke-linejoin:round;" /><path d="M 360.00 2880.00 L 360.00 3200.00" style="fill:none;stroke:#000000;stroke-width:2px;stroke-linecap:round;stroke-linejoin:round;" /><path d="M 360.00 2880.00 L 360.00 3048.00 L 1440.00 3048.00 L 1440.00 3200.00" style="fill:none;stroke:#000000;stroke-width:2px;stroke-linecap:round;stroke-linejoin:round;" /><path d="M 360.00 2880.00 L 360.00 3048.00 L 2528.00 3048.00 L 2528.00 3200.00" style="fill:none;stroke:#000000;stroke-width:2px;stroke-linecap:round;stroke-linejoin:round;" /><path d="M 360.00 2310.00 Q 368.00 2302.00 376.00 2310.00" style="fill:none;stroke:#ffffff;stroke-width:4px;stroke-linecap:round;stroke-linejoin:round;" /><path d="M 360.00 2310.00 Q 368.00 2302.00 376.00 2310.00" style="fill:none;stroke:#000000;stroke-width:2px;stroke-linecap:round;stroke-linejoin:round;" /><path d="M 816.00 1428.00 Q 824.00 1420.00 832.00 1428.00" style="fill:none;stroke:#ffffff;stroke-width:4px;stroke-linecap:round;stroke-linejoin:round;" /><path d="M 816.00 1428.00 Q 824.00 1420.00 832.00 1428.00" style="fill:none;stroke:#000000;stroke-width:2px;stroke-linecap:round;stroke-linejoin:round;" /><path d="M 816.00 1428.00 Q 824.00 1420.00 832.00 1428.00" style="fill:none;stroke:#ffffff;stroke-width:4px;stroke-linecap:round;stroke-linejoin:round;" /><path d="M 816.00 1428.00 Q 824.00 1420.00 832.00 1428.00" style="fill:none;stroke:#000000;stroke-width:2px;stroke-linecap:round;stroke-linejoin:round;" /><path d="M 352.00 2150.00 Q 360.00 2142.00 368.00 2150.00" style="fill:none;stroke:#ffffff;stroke-width:4px;stroke-linecap:round;stroke-linejoin:round;" /><path d="M 352.00 2150.00 Q 360.00 2142.00 368.00 2150.00" style="fill:none;stroke:#000000;stroke-width:2px;stroke-linecap:round;stroke-linejoin:round;" /><path d="M 816.00 2174.00 Q 824.00 2166.00 832.00 2174.00" style="fill:none;stroke:#ffffff;stroke-width:4px;stroke-linecap:round;stroke-linejoin:round;" /><path d="M 816.00 2174.00 Q 824.00 2166.00 832.00 2174.00" style="fill:none;stroke:#000000;stroke-width:2px;stroke-linecap:round;stroke-linejoin:round;" /><path d="M 816.00 1853.00 Q 824.00 1845.00 832.00 1853.00" style="fill:none;stroke:#ffffff;stroke-width:4px;stroke-linecap:round;stroke-linejoin:round;" /><path d="M 816.00 1853.00 Q 824.00 1845.00 832.00 1853.00" style="fill:none;stroke:#000000;stroke-width:2px;stroke-linecap:round;stroke-linejoin:round;" /><path d="M 2504.00 3048.00 Q 2512.00 3040.00 2520.00 3048.00" style="fill:none;stroke:#ffffff;stroke-width:4px;stroke-linecap:round;stroke-linejoin:round;" /><path d="M 2504.00 3048.00 Q 2512.00 3040.00 2520.00 3048.00" style="fill:none;stroke:#000000;stroke-width:2px;stroke-linecap:round;stroke-linejoin:round;" /><path d="M 360.00 810.00 L 348.00 770.00 L 372.00 770.00 Z" style="fill:#000000;stroke:none;" /><path d="M 360.00 1620.00 L 348.00 1580.00 L 372.00 1580.00 Z" style="fill:#000000;stroke:none;" /><path d="M 360.00 1620.00 L 348.00 1580.00 L 372.00 1580.00 Z" style="fill:#000000;stroke:none;" /><path d="M 352.00 2430.00 L 340.00 2390.00 L 364.00 2390.00 Z" style="fill:#000000;stroke:none;" /><path d="M 360.00 3240.00 L 348.00 3200.00 L 372.00 3200.00 Z" style="fill:#000000;stroke:none;" /><path d="M 360.00 1620.00 L 348.00 1580.00 L 372.00 1580.00 Z" style="fill:#000000;stroke:none;" /><path d="M 360.00 1620.00 L 348.00 1580.00 L 372.00 1580.00 Z" style="fill:#000000;stroke:none;" /><path d="M 368.00 2430.00 L 356.00 2390.00 L 380.00 2390.00 Z" style="fill:#000000;stroke:none;" /><path d="M 360.00 3240.00 L 348.00 3200.00 L 372.00 3200.00 Z" style="fill:#000000;stroke:none;" /><path d="M 2512.00 3240.00 L 2500.00 3200.00 L 2524.00 3200.00 Z" style="fill:#000000;stroke:none;" /><path d="M 360.00 1620.00 L 372.00 1660.00 L 348.00 1660.00 Z" style="fill:#000000;stroke:none;" /><path d="M 360.00 3240.00 L 348.00 3200.00 L 372.00 3200.00 Z" style="fill:#000000;stroke:none;" /><path d="M 1440.00 3240.00 L 1428.00 3200.00 L 1452.00 3200.00 Z" style="fill:#000000;stroke:none;" /><path d="M 2528.00 3240.00 L 2516.00 3200.00 L 2540.00 3200.00 Z" style="fill:#000000;stroke:none;" /></g><g id="node-shapes"><g id="TRG-901" class="aurora-symbol" transform="translate(2160, 3240)"><use href="#trapezoid" style="fill:#78350f;stroke:#000000;" /><g class="aurora-icon" transform="translate(70.00, 189.00) scale(0.562500)"><use href="#i-bolt" /></g><text x="398.00" y="100.20" style="fill:#FFFFFF;font-size:24px;">TRG-901: Trigger</text><text x="398.00" y="132.20" style="fill:#FFFFFF;font-size:28px;font-weight:bold;">Downstream trigger</text><text x="398.00" y="156.20" style="fill:#FFFFFF;"></text><text x="398.00" y="180.20" style="fill:#FFFFFF;">Second trigger used to demonstrate trigger chaining via</text><text x="398.00" y="199.40" style="fill:#FFFFFF;">'triggers'.</text></g><g id="ATV-901" class="aurora-symbol" transform="translate(0, 3240)"><use href="#double-rectangle" style="fill:#4c1d95;stroke:#000000;" /><g class="aurora-icon" transform="translate(70.00, 189.00) scale(0.562500)"><use href="#i-hammer" /></g><text x="398.00" y="100.20" style="fill:#FFFFFF;font-size:24px;">ATV-901: Activity</text><text x="398.00" y="132.20" style="fill:#FFFFFF;font-size:28px;font-weight:bold;">Complete example activity</text><text x="398.00" y="156.20" style="fill:#FFFFFF;"></text><text x="398.00" y="180.20" style="fill:#FFFFFF;">Second activity used to demonstrate sequencing via 'leads</text><text x="398.00" y="199.40" style="fill:#FFFFFF;">to'.</text></g><g id="ATV-900" class="aurora-symbol" transform="translate(0, 1620)"><use href="#double-rectangle" style="fill:#4c1d95;stroke:#000000;" /><g class="aurora-icon" transform="translate(70.00, 189.00) scale(0.562500)"><use href="#i-hammer" /></g><text x="398.00" y="100.20" style="fill:#FFFFFF;font-size:24px;">ATV-900: Activity</text><text x="398.00" y="132.20" style="fill:#FFFFFF;font-size:28px;font-weight:bold;">Perform example activity</text><text x="398.00" y="156.20" style="fill:#FFFFFF;"></text><text x="398.00" y="180.20" style="fill:#FFFFFF;">An activity that exercises the full Activity relationship</text><text x="398.00" y="199.40" style="fill:#FFFFFF;">set.</text></g><g id="ACT-903" class="aurora-symbol" transform="translate(1080, 1620)"><use href="#rounded-rectangle" style="fill:#1a2e05;stroke:#000000;" /><g class="aurora-icon" transform="translate(70.00, 189.00) scale(0.562500)"><use href="#i-person" /></g><text x="398.00" y="100.20" style="fill:#FFFFFF;font-size:24px;">ACT-903: Actor (Regulator)</text><text x="398.00" y="132.20" style="fill:#FFFFFF;font-size:28px;font-weight:bold;">Example regulator actor</text><text x="398.00" y="156.20" style="fill:#FFFFFF;"></text><text x="398.00" y="180.20" style="fill:#FFFFFF;">Representative regulator actor for coverage.</text></g><g id="ACT-901" class="aurora-symbol" transform="translate(1080, 810)"><use href="#rounded-rectangle" style="fill:#1a2e05;stroke:#000000;" /><g class="aurora-icon" transform="translate(70.00, 189.00) scale(0.562500)"><use href="#i-person" /></g><text x="398.00" y="100.20" style="fill:#FFFFFF;font-size:24px;">ACT-901: Actor (Admin)</text><text x="398.00" y="132.20" style="fill:#FFFFFF;font-size:28px;font-weight:bold;">Example admin</text><text x="398.00" y="156.20" style="fill:#FFFFFF;"></text><text x="398.00" y="180.20" style="fill:#FFFFFF;">Representative administrative actor for coverage.</text></g><g id="ACT-902" class="aurora-symbol" transform="translate(2160, 810)"><use href="#rounded-rectangle" style="fill:#1a2e05;stroke:#000000;" /><g class="aurora-icon" transform="translate(70.00, 189.00) scale(0.562500)"><use href="#i-person" /></g><text x="398.00" y="100.20" style="fill:#FFFFFF;font-size:24px;">ACT-902: Actor (External System)</text><text x="398.00" y="132.20" style="fill:#FFFFFF;font-size:28px;font-weight:bold;">Example external system</text><text x="398.00" y="156.20" style="fill:#FFFFFF;"></text><text x="398.00" y="180.20" style="fill:#FFFFFF;">Representative machine actor for coverage.</text></g><g id="CON-901" class="aurora-symbol" transform="translate(1080, 3240)"><use href="#diamond" style="fill:#422006;stroke:#000000;" /><g class="aurora-icon" transform="translate(70.00, 189.00) scale(0.562500)"><use href="#i-large_blue_diamond" /></g><text x="398.00" y="100.20" style="fill:#FFFFFF;font-size:24px;">CON-901: Condition</text><text x="398.00" y="132.20" style="fill:#FFFFFF;font-size:28px;font-weight:bold;">Downstream condition</text><text x="398.00" y="156.20" style="fill:#FFFFFF;"></text><text x="398.00" y="180.20" style="fill:#FFFFFF;">Second condition used to demonstrate condition-to-condition</text><text x="398.00" y="199.40" style="fill:#FFFFFF;">branching.</text></g><g id="CAP-900" class="aurora-symbol" transform="translate(0, 0)"><use href="#rounded-rectangle" style="fill:#052e16;stroke:#000000;" /><text x="398.00" y="100.20" style="fill:#FFFFFF;font-size:24px;">CAP-900: Capability</text><text x="398.00" y="132.20" style="fill:#FFFFFF;font-size:28px;font-weight:bold;">Generate example views</text><text x="398.00" y="156.20" style="fill:#FFFFFF;"></text><text x="398.00" y="180.20" style="fill:#FFFFFF;">Provide enough connected structure that the CLI can render</text><text x="398.00" y="199.40" style="fill:#FFFFFF;">every view type from the canonical registry.</text></g><g id="CON-900" class="aurora-symbol" transform="translate(0, 2430)"><use href="#diamond" style="fill:#422006;stroke:#000000;" /><g class="aurora-icon" transform="translate(70.00, 189.00) scale(0.562500)"><use href="#i-large_blue_diamond" /></g><text x="398.00" y="100.20" style="fill:#FFFFFF;font-size:24px;">CON-900: Condition</text><text x="398.00" y="132.20" style="fill:#FFFFFF;font-size:28px;font-weight:bold;">Example condition</text><text x="398.00" y="156.20" style="fill:#FFFFFF;"></text><text x="398.00" y="180.20" style="fill:#FFFFFF;">A process-domain condition that exercises branching to</text><text x="398.00" y="199.40" style="fill:#FFFFFF;">activities, triggers, and other conditions.</text></g><g id="PRO-900" class="aurora-symbol" transform="translate(0, 810)"><use href="#octagon" style="fill:#2e1065;stroke:#000000;" /><g class="aurora-icon" transform="translate(70.00, 189.00) scale(0.562500)"><use href="#i-repeat_button" /></g><text x="398.00" y="100.20" style="fill:#FFFFFF;font-size:24px;">PRO-900: Process</text><text x="398.00" y="132.20" style="fill:#FFFFFF;font-size:28px;font-weight:bold;">Run an end-to-end example flow</text><text x="398.00" y="156.20" style="fill:#FFFFFF;"></text><text x="398.00" y="180.20" style="fill:#FFFFFF;">A simple process that demonstrates process-domain</text><text x="398.00" y="199.40" style="fill:#FFFFFF;">activities, triggers, and conditions.</text></g></g></g></svg>